<svg viewBox="0 0 1260 900" xmlns="http://www.w3.org/2000/svg" font-family="'Segoe UI', 'Helvetica Neue', Helvetica, Arial, sans-serif">
  <defs>
    <filter id="sh" x="-20%" y="-20%" width="140%" height="140%"><feDropShadow dx="0" dy="1.6" stdDeviation="1.8" flood-color="#0f172a" flood-opacity="0.18"/></filter>
    <marker id="arr" markerWidth="11" markerHeight="11" refX="8.5" refY="4.5" orient="auto"><path d="M0,0 L9,4.5 L0,9 L2.6,4.5 Z" fill="#6a7686"/></marker>
    <marker id="arrS" markerWidth="11" markerHeight="11" refX="0.5" refY="4.5" orient="auto"><path d="M9,0 L0,4.5 L9,9 L6.4,4.5 Z" fill="#6a7686"/></marker>
    <marker id="mOne" markerWidth="18" markerHeight="16" refX="15" refY="8" orient="auto"><path d="M7,2 V14 M11,2 V14" stroke="#6a7686" stroke-width="1.7" fill="none"/></marker>
    <marker id="mMany" markerWidth="22" markerHeight="18" refX="19" refY="9" orient="auto"><circle cx="4" cy="9" r="3" fill="#fff" stroke="#6a7686" stroke-width="1.5"/><path d="M19,2 L10,9 L19,16" fill="none" stroke="#6a7686" stroke-width="1.7"/></marker>
  </defs>
  <rect x="0" y="0" width="1260" height="900" fill="#ffffff"/>
  <text x="40" y="48" font-size="22" font-weight="700" fill="#0f172a" font-family="'Segoe UI', 'Helvetica Neue', Helvetica, Arial, sans-serif">DFD Level 2 — Process 4.0 Navigate &amp; Find Stalls</text>
  <line x1="40" y1="64" x2="1220" y2="64" stroke="#e2e8f0" stroke-width="2"/>
  <path d="M 468 168 L 468 218 Q 468 230 456 230 L 312 230 Q 300 230 300 242 L 300 254" fill="none" stroke="#6a7686" stroke-width="1.8" marker-end="url(#arr)"/><path d="M 532 168 L 532 218 Q 532 230 544 230 L 688 230 Q 700 230 700 242 L 700 254" fill="none" stroke="#6a7686" stroke-width="1.8" marker-end="url(#arr)"/><path d="M 300 366 L 300 428 Q 300 440 312 440 L 444 440 Q 456 440 456 452 L 456 490" fill="none" stroke="#6a7686" stroke-width="1.8" marker-end="url(#arr)"/><path d="M 700 366 L 700 428 Q 700 440 688 440 L 556 440 Q 544 440 544 452 L 544 490" fill="none" stroke="#6a7686" stroke-width="1.8" marker-end="url(#arr)"/><path d="M 470 592 L 470 678 Q 470 690 458 690 L 307 690 Q 300 690 300 697 L 300 704" fill="none" stroke="#6a7686" stroke-width="1.8" marker-end="url(#arr)"/><path d="M 530 592 L 530 678 Q 530 690 542 690 L 693 690 Q 700 690 700 697 L 700 704" fill="none" stroke="#6a7686" stroke-width="1.8" marker-end="url(#arr)"/><path d="M 256 760 L 162 760 Q 150 760 150 748 L 150 152 Q 150 140 162 140 L 416 140" fill="none" stroke="#6a7686" stroke-width="1.8" marker-end="url(#arr)"/><path d="M 744 760 L 1118 760 Q 1130 760 1130 748 L 1130 152 Q 1130 140 1118 140 L 584 140" fill="none" stroke="#6a7686" stroke-width="1.8" marker-end="url(#arr)"/><path d="M 560 168 L 808 168 Q 820 168 820 180 L 820 748 Q 820 760 808 760 L 756 760" fill="none" stroke="#6a7686" stroke-width="1.8" marker-end="url(#arr)"/><path d="M 756 310 L 902 310" fill="none" stroke="#6a7686" stroke-width="1.8" marker-end="url(#arr)"/><path d="M 556 540 L 896 540" fill="none" stroke="#6a7686" stroke-width="1.8" marker-end="url(#arr)"/><g><rect x="336.7" y="211" width="86.6" height="22" rx="4" fill="#ffffff" opacity="0.95"/><text x="380" y="222" text-anchor="middle" dominant-baseline="central" font-size="12.5" fill="#39455a" font-family="'Segoe UI', 'Helvetica Neue', Helvetica, Arial, sans-serif">drag / look</text></g><g><rect x="575.1" y="211" width="99.8" height="22" rx="4" fill="#ffffff" opacity="0.95"/><text x="625" y="222" text-anchor="middle" dominant-baseline="central" font-size="12.5" fill="#39455a" font-family="'Segoe UI', 'Helvetica Neue', Helvetica, Arial, sans-serif">search / pick</text></g><g><rect x="338.6" y="444" width="66.8" height="22" rx="4" fill="#ffffff" opacity="0.95"/><text x="372" y="455" text-anchor="middle" dominant-baseline="central" font-size="12.5" fill="#39455a" font-family="'Segoe UI', 'Helvetica Neue', Helvetica, Arial, sans-serif">location</text></g><g><rect x="588.7" y="444" width="86.6" height="22" rx="4" fill="#ffffff" opacity="0.95"/><text x="632" y="455" text-anchor="middle" dominant-baseline="central" font-size="12.5" fill="#39455a" font-family="'Segoe UI', 'Helvetica Neue', Helvetica, Arial, sans-serif">destination</text></g><g><rect x="335.3" y="661" width="73.4" height="22" rx="4" fill="#ffffff" opacity="0.95"/><text x="372" y="672" text-anchor="middle" dominant-baseline="central" font-size="12.5" fill="#39455a" font-family="'Segoe UI', 'Helvetica Neue', Helvetica, Arial, sans-serif">waypoints</text></g><g><rect x="593.3" y="661" width="73.4" height="22" rx="4" fill="#ffffff" opacity="0.95"/><text x="630" y="672" text-anchor="middle" dominant-baseline="central" font-size="12.5" fill="#39455a" font-family="'Segoe UI', 'Helvetica Neue', Helvetica, Arial, sans-serif">waypoints</text></g><g><rect x="186.9" y="117" width="126.19999999999999" height="22" rx="4" fill="#ffffff" opacity="0.95"/><text x="250" y="128" text-anchor="middle" dominant-baseline="central" font-size="12.5" fill="#39455a" font-family="'Segoe UI', 'Helvetica Neue', Helvetica, Arial, sans-serif">panorama + arrows</text></g><g><rect x="946.8" y="117" width="106.39999999999999" height="22" rx="4" fill="#ffffff" opacity="0.95"/><text x="1000" y="128" text-anchor="middle" dominant-baseline="central" font-size="12.5" fill="#39455a" font-family="'Segoe UI', 'Helvetica Neue', Helvetica, Arial, sans-serif">camera + steps</text></g><g><rect x="789.9" y="189" width="60.199999999999996" height="22" rx="4" fill="#ffffff" opacity="0.95"/><text x="820" y="200" text-anchor="middle" dominant-baseline="central" font-size="12.5" fill="#39455a" font-family="'Segoe UI', 'Helvetica Neue', Helvetica, Arial, sans-serif">scan QR</text></g><g><rect x="812" y="289" width="80" height="22" rx="4" fill="#ffffff" opacity="0.95"/><text x="852" y="300" text-anchor="middle" dominant-baseline="central" font-size="12.5" fill="#39455a" font-family="'Segoe UI', 'Helvetica Neue', Helvetica, Arial, sans-serif">read stall</text></g><g><rect x="728.5" y="529" width="47" height="22" rx="4" fill="#ffffff" opacity="0.95"/><text x="752" y="540" text-anchor="middle" dominant-baseline="central" font-size="12.5" fill="#39455a" font-family="'Segoe UI', 'Helvetica Neue', Helvetica, Arial, sans-serif">graph</text></g><g filter="url(#sh)"><rect x="425" y="92" width="150" height="56" rx="5" fill="#f4f6f9" stroke="#52617a" stroke-width="2.1"/></g><text x="500" y="120" text-anchor="middle" dominant-baseline="central" font-size="15" font-weight="600" fill="#293445" font-family="'Segoe UI', 'Helvetica Neue', Helvetica, Arial, sans-serif">Shopper / Visitor</text><g filter="url(#sh)"><circle cx="300" cy="310" r="56" fill="#e9f1fd" stroke="#2f6fd0" stroke-width="2.4"/></g><text x="300" y="294" text-anchor="middle" dominant-baseline="central" font-size="14" font-weight="600" fill="#15407f" font-family="'Segoe UI', 'Helvetica Neue', Helvetica, Arial, sans-serif">4.1</text><text x="300" y="310" text-anchor="middle" dominant-baseline="central" font-size="14" font-weight="600" fill="#15407f" font-family="'Segoe UI', 'Helvetica Neue', Helvetica, Arial, sans-serif">Browse 360</text><text x="300" y="326" text-anchor="middle" dominant-baseline="central" font-size="14" font-weight="600" fill="#15407f" font-family="'Segoe UI', 'Helvetica Neue', Helvetica, Arial, sans-serif">Panorama</text><g filter="url(#sh)"><circle cx="700" cy="310" r="56" fill="#e9f1fd" stroke="#2f6fd0" stroke-width="2.4"/></g><text x="700" y="294" text-anchor="middle" dominant-baseline="central" font-size="14" font-weight="600" fill="#15407f" font-family="'Segoe UI', 'Helvetica Neue', Helvetica, Arial, sans-serif">4.2</text><text x="700" y="310" text-anchor="middle" dominant-baseline="central" font-size="14" font-weight="600" fill="#15407f" font-family="'Segoe UI', 'Helvetica Neue', Helvetica, Arial, sans-serif">Select</text><text x="700" y="326" text-anchor="middle" dominant-baseline="central" font-size="14" font-weight="600" fill="#15407f" font-family="'Segoe UI', 'Helvetica Neue', Helvetica, Arial, sans-serif">Destination</text><g filter="url(#sh)"><circle cx="500" cy="540" r="56" fill="#e9f1fd" stroke="#2f6fd0" stroke-width="2.4"/></g><text x="500" y="524" text-anchor="middle" dominant-baseline="central" font-size="14" font-weight="600" fill="#15407f" font-family="'Segoe UI', 'Helvetica Neue', Helvetica, Arial, sans-serif">4.3</text><text x="500" y="540" text-anchor="middle" dominant-baseline="central" font-size="14" font-weight="600" fill="#15407f" font-family="'Segoe UI', 'Helvetica Neue', Helvetica, Arial, sans-serif">Compute</text><text x="500" y="556" text-anchor="middle" dominant-baseline="central" font-size="14" font-weight="600" fill="#15407f" font-family="'Segoe UI', 'Helvetica Neue', Helvetica, Arial, sans-serif">Walking Route</text><g filter="url(#sh)"><circle cx="300" cy="760" r="56" fill="#e9f1fd" stroke="#2f6fd0" stroke-width="2.4"/></g><text x="300" y="744" text-anchor="middle" dominant-baseline="central" font-size="14" font-weight="600" fill="#15407f" font-family="'Segoe UI', 'Helvetica Neue', Helvetica, Arial, sans-serif">4.4</text><text x="300" y="760" text-anchor="middle" dominant-baseline="central" font-size="14" font-weight="600" fill="#15407f" font-family="'Segoe UI', 'Helvetica Neue', Helvetica, Arial, sans-serif">Guide via</text><text x="300" y="776" text-anchor="middle" dominant-baseline="central" font-size="14" font-weight="600" fill="#15407f" font-family="'Segoe UI', 'Helvetica Neue', Helvetica, Arial, sans-serif">Panorama</text><g filter="url(#sh)"><circle cx="700" cy="760" r="56" fill="#e9f1fd" stroke="#2f6fd0" stroke-width="2.4"/></g><text x="700" y="744" text-anchor="middle" dominant-baseline="central" font-size="14" font-weight="600" fill="#15407f" font-family="'Segoe UI', 'Helvetica Neue', Helvetica, Arial, sans-serif">4.5</text><text x="700" y="760" text-anchor="middle" dominant-baseline="central" font-size="14" font-weight="600" fill="#15407f" font-family="'Segoe UI', 'Helvetica Neue', Helvetica, Arial, sans-serif">Guide via</text><text x="700" y="776" text-anchor="middle" dominant-baseline="central" font-size="14" font-weight="600" fill="#15407f" font-family="'Segoe UI', 'Helvetica Neue', Helvetica, Arial, sans-serif">AR + QR</text><g><line x1="905" y1="287" x2="1055" y2="287" stroke="#b06a12" stroke-width="2.4" stroke-linecap="round"/><line x1="905" y1="333" x2="1055" y2="333" stroke="#b06a12" stroke-width="2.4" stroke-linecap="round"/><line x1="939" y1="287" x2="939" y2="333" stroke="#b06a12" stroke-width="2.2"/><text x="922" y="310" text-anchor="middle" dominant-baseline="central" font-size="13" font-weight="700" fill="#7a4810" font-family="'Segoe UI', 'Helvetica Neue', Helvetica, Arial, sans-serif">D2</text><text x="997" y="310" text-anchor="middle" dominant-baseline="central" font-size="13.5" font-weight="600" fill="#7a4810" font-family="'Segoe UI', 'Helvetica Neue', Helvetica, Arial, sans-serif">Stalls</text></g><g><line x1="896" y1="517" x2="1064" y2="517" stroke="#b06a12" stroke-width="2.4" stroke-linecap="round"/><line x1="896" y1="563" x2="1064" y2="563" stroke="#b06a12" stroke-width="2.4" stroke-linecap="round"/><line x1="930" y1="517" x2="930" y2="563" stroke="#b06a12" stroke-width="2.2"/><text x="913" y="540" text-anchor="middle" dominant-baseline="central" font-size="13" font-weight="700" fill="#7a4810" font-family="'Segoe UI', 'Helvetica Neue', Helvetica, Arial, sans-serif">D7</text><text x="997" y="540" text-anchor="middle" dominant-baseline="central" font-size="13.5" font-weight="600" fill="#7a4810" font-family="'Segoe UI', 'Helvetica Neue', Helvetica, Arial, sans-serif">Map / Pathway</text></g>
</svg>