<svg viewBox="0 0 1440 820" xmlns="http://www.w3.org/2000/svg" font-family="'Segoe UI', 'Helvetica Neue', Helvetica, Arial, sans-serif">
  <defs>
    <filter id="sh" x="-20%" y="-20%" width="140%" height="140%"><feDropShadow dx="0" dy="1.6" stdDeviation="1.8" flood-color="#0f172a" flood-opacity="0.18"/></filter>
    <marker id="arr" markerWidth="11" markerHeight="11" refX="8.5" refY="4.5" orient="auto"><path d="M0,0 L9,4.5 L0,9 L2.6,4.5 Z" fill="#6a7686"/></marker>
    <marker id="arrS" markerWidth="11" markerHeight="11" refX="0.5" refY="4.5" orient="auto"><path d="M9,0 L0,4.5 L9,9 L6.4,4.5 Z" fill="#6a7686"/></marker>
    <marker id="mOne" markerWidth="18" markerHeight="16" refX="15" refY="8" orient="auto"><path d="M7,2 V14 M11,2 V14" stroke="#6a7686" stroke-width="1.7" fill="none"/></marker>
    <marker id="mMany" markerWidth="22" markerHeight="18" refX="19" refY="9" orient="auto"><circle cx="4" cy="9" r="3" fill="#fff" stroke="#6a7686" stroke-width="1.5"/><path d="M19,2 L10,9 L19,16" fill="none" stroke="#6a7686" stroke-width="1.7"/></marker>
  </defs>
  <rect x="0" y="0" width="1440" height="820" fill="#ffffff"/>
  <text x="40" y="48" font-size="22" font-weight="700" fill="#0f172a" font-family="'Segoe UI', 'Helvetica Neue', Helvetica, Arial, sans-serif">DFD Level 2 — Process 2.0 Applications &amp; Approval</text>
  <line x1="40" y1="64" x2="1400" y2="64" stroke="#e2e8f0" stroke-width="2"/>
  <path d="M 244 310 L 366 310" fill="none" stroke="#6a7686" stroke-width="1.8" marker-end="url(#arr)"/><path d="M 474 330 L 626 330" fill="none" stroke="#6a7686" stroke-width="1.8" marker-end="url(#arr)"/><path d="M 734 330 L 886 330" fill="none" stroke="#6a7686" stroke-width="1.8" marker-end="url(#arr)"/><path d="M 994 322 L 1146 322" fill="none" stroke="#6a7686" stroke-width="1.8" marker-end="url(#arr)"/><path d="M 940 384 L 940 420 Q 940 432 928 432 L 192 432 Q 180 432 180 420 L 180 338" fill="none" stroke="#6a7686" stroke-width="1.8" marker-end="url(#arr)"/><path d="M 160 342 L 160 548 Q 160 560 172 560 L 196 560" fill="none" stroke="#6a7686" stroke-width="1.8" marker-end="url(#arr)"/><path d="M 250 506 L 250 474 Q 250 462 262 462 L 408 462 Q 420 462 420 450 L 420 384" fill="none" stroke="#6a7686" stroke-width="1.8" marker-end="url(#arr)"/><path d="M 610 178 L 610 238 Q 610 250 622 250 L 650 250 Q 662 250 662 262 L 662 278" fill="none" stroke="#6a7686" stroke-width="1.8" marker-end="url(#arr)"/><path d="M 770 178 L 770 238 Q 770 250 758 250 L 710 250 Q 698 250 698 262 L 698 278" fill="none" stroke="#6a7686" stroke-width="1.8" marker-end="url(#arr)"/><path d="M 940 384 L 940 466" fill="none" stroke="#6a7686" stroke-width="1.8" marker-end="url(#arr)"/><path d="M 1200 384 L 1200 466" fill="none" stroke="#6a7686" stroke-width="1.8" marker-end="url(#arr)"/><path d="M 420 384 L 420 678 Q 420 690 432 690 L 551.5 690 Q 560 690 560 698.5 L 560 707" fill="none" stroke="#6a7686" stroke-width="1.8" marker-end="url(#arr)"/><path d="M 665 384 L 665 650 Q 665 662 653 662 L 342 662 Q 330 662 330 674 L 330 707" fill="none" stroke="#6a7686" stroke-width="1.8" marker-end="url(#arr)"/><path d="M 695 384 L 695 670 Q 695 682 707 682 L 828 682 Q 840 682 840 694 L 840 707" fill="none" stroke="#6a7686" stroke-width="1.8" marker-end="url(#arr)"/><path d="M 925 384 L 925 690 Q 925 702 913 702 L 577.5 702 Q 575 702 575 704.5 L 575 707" fill="none" stroke="#6a7686" stroke-width="1.8" marker-end="url(#arr)"/><path d="M 1185 384 L 1185 660 Q 1185 672 1173 672 L 867 672 Q 855 672 855 684 L 855 707" fill="none" stroke="#6a7686" stroke-width="1.8" marker-end="url(#arr)"/><g><rect x="284.8" y="283" width="40.4" height="22" rx="4" fill="#ffffff" opacity="0.95"/><text x="305" y="294" text-anchor="middle" dominant-baseline="central" font-size="12.5" fill="#39455a" font-family="'Segoe UI', 'Helvetica Neue', Helvetica, Arial, sans-serif">form</text></g><g><rect x="513.3" y="303" width="73.4" height="22" rx="4" fill="#ffffff" opacity="0.95"/><text x="550" y="314" text-anchor="middle" dominant-baseline="central" font-size="12.5" fill="#39455a" font-family="'Segoe UI', 'Helvetica Neue', Helvetica, Arial, sans-serif">submitted</text></g><g><rect x="776.6" y="303" width="66.8" height="22" rx="4" fill="#ffffff" opacity="0.95"/><text x="810" y="314" text-anchor="middle" dominant-baseline="central" font-size="12.5" fill="#39455a" font-family="'Segoe UI', 'Helvetica Neue', Helvetica, Arial, sans-serif">decision</text></g><g><rect x="1036.6" y="295" width="66.8" height="22" rx="4" fill="#ffffff" opacity="0.95"/><text x="1070" y="306" text-anchor="middle" dominant-baseline="central" font-size="12.5" fill="#39455a" font-family="'Segoe UI', 'Helvetica Neue', Helvetica, Arial, sans-serif">approved</text></g><g><rect x="370.2" y="404" width="119.6" height="22" rx="4" fill="#ffffff" opacity="0.95"/><text x="430" y="415" text-anchor="middle" dominant-baseline="central" font-size="12.5" fill="#39455a" font-family="'Segoe UI', 'Helvetica Neue', Helvetica, Arial, sans-serif">outcome + reason</text></g><g><rect x="203.2" y="459" width="53.599999999999994" height="22" rx="4" fill="#ffffff" opacity="0.95"/><text x="230" y="470" text-anchor="middle" dominant-baseline="central" font-size="12.5" fill="#39455a" font-family="'Segoe UI', 'Helvetica Neue', Helvetica, Arial, sans-serif">appeal</text></g><g><rect x="301.6" y="436" width="66.8" height="22" rx="4" fill="#ffffff" opacity="0.95"/><text x="335" y="447" text-anchor="middle" dominant-baseline="central" font-size="12.5" fill="#39455a" font-family="'Segoe UI', 'Helvetica Neue', Helvetica, Arial, sans-serif">resubmit</text></g><g><rect x="583.2" y="239" width="53.599999999999994" height="22" rx="4" fill="#ffffff" opacity="0.95"/><text x="610" y="250" text-anchor="middle" dominant-baseline="central" font-size="12.5" fill="#39455a" font-family="'Segoe UI', 'Helvetica Neue', Helvetica, Arial, sans-serif">review</text></g><g><rect x="743.2" y="239" width="53.599999999999994" height="22" rx="4" fill="#ffffff" opacity="0.95"/><text x="770" y="250" text-anchor="middle" dominant-baseline="central" font-size="12.5" fill="#39455a" font-family="'Segoe UI', 'Helvetica Neue', Helvetica, Arial, sans-serif">review</text></g><g><rect x="949.2" y="419" width="53.599999999999994" height="22" rx="4" fill="#ffffff" opacity="0.95"/><text x="976" y="430" text-anchor="middle" dominant-baseline="central" font-size="12.5" fill="#39455a" font-family="'Segoe UI', 'Helvetica Neue', Helvetica, Arial, sans-serif">notify</text></g><g><rect x="1205.9" y="419" width="60.199999999999996" height="22" rx="4" fill="#ffffff" opacity="0.95"/><text x="1236" y="430" text-anchor="middle" dominant-baseline="central" font-size="12.5" fill="#39455a" font-family="'Segoe UI', 'Helvetica Neue', Helvetica, Arial, sans-serif">payment</text></g><g><rect x="465.8" y="629" width="40.4" height="22" rx="4" fill="#ffffff" opacity="0.95"/><text x="486" y="640" text-anchor="middle" dominant-baseline="central" font-size="12.5" fill="#39455a" font-family="'Segoe UI', 'Helvetica Neue', Helvetica, Arial, sans-serif">save</text></g><g><rect x="463" y="637" width="14" height="22" rx="4" fill="#ffffff" opacity="0.95"/><text x="470" y="648" text-anchor="middle" dominant-baseline="central" font-size="12.5" fill="#39455a" font-family="'Segoe UI', 'Helvetica Neue', Helvetica, Arial, sans-serif"></text></g><g><rect x="383.3" y="589" width="73.4" height="22" rx="4" fill="#ffffff" opacity="0.95"/><text x="420" y="600" text-anchor="middle" dominant-baseline="central" font-size="12.5" fill="#39455a" font-family="'Segoe UI', 'Helvetica Neue', Helvetica, Arial, sans-serif">applicant</text></g><g><rect x="736.5" y="629" width="47" height="22" rx="4" fill="#ffffff" opacity="0.95"/><text x="760" y="640" text-anchor="middle" dominant-baseline="central" font-size="12.5" fill="#39455a" font-family="'Segoe UI', 'Helvetica Neue', Helvetica, Arial, sans-serif">check</text></g><g><rect x="673.2" y="654" width="53.599999999999994" height="22" rx="4" fill="#ffffff" opacity="0.95"/><text x="700" y="665" text-anchor="middle" dominant-baseline="central" font-size="12.5" fill="#39455a" font-family="'Segoe UI', 'Helvetica Neue', Helvetica, Arial, sans-serif">update</text></g><g><rect x="933.2" y="624" width="53.599999999999994" height="22" rx="4" fill="#ffffff" opacity="0.95"/><text x="960" y="635" text-anchor="middle" dominant-baseline="central" font-size="12.5" fill="#39455a" font-family="'Segoe UI', 'Helvetica Neue', Helvetica, Arial, sans-serif">occupy</text></g><g filter="url(#sh)"><rect x="76" y="272" width="168" height="56" rx="5" fill="#f4f6f9" stroke="#52617a" stroke-width="2.1"/></g><text x="160" y="300" text-anchor="middle" dominant-baseline="central" font-size="15" font-weight="600" fill="#293445" font-family="'Segoe UI', 'Helvetica Neue', Helvetica, Arial, sans-serif">Renter / Applicant</text><g filter="url(#sh)"><rect x="535" y="122" width="150" height="56" rx="5" fill="#f4f6f9" stroke="#52617a" stroke-width="2.1"/></g><text x="610" y="150" text-anchor="middle" dominant-baseline="central" font-size="15" font-weight="600" fill="#293445" font-family="'Segoe UI', 'Helvetica Neue', Helvetica, Arial, sans-serif">Contractor</text><g filter="url(#sh)"><rect x="700" y="122" width="140" height="56" rx="5" fill="#f4f6f9" stroke="#52617a" stroke-width="2.1"/></g><text x="770" y="150" text-anchor="middle" dominant-baseline="central" font-size="15" font-weight="600" fill="#293445" font-family="'Segoe UI', 'Helvetica Neue', Helvetica, Arial, sans-serif">Admin</text><g filter="url(#sh)"><circle cx="420" cy="330" r="54" fill="#e9f1fd" stroke="#2f6fd0" stroke-width="2.4"/></g><text x="420" y="314" text-anchor="middle" dominant-baseline="central" font-size="14" font-weight="600" fill="#15407f" font-family="'Segoe UI', 'Helvetica Neue', Helvetica, Arial, sans-serif">2.1</text><text x="420" y="330" text-anchor="middle" dominant-baseline="central" font-size="14" font-weight="600" fill="#15407f" font-family="'Segoe UI', 'Helvetica Neue', Helvetica, Arial, sans-serif">Submit /</text><text x="420" y="346" text-anchor="middle" dominant-baseline="central" font-size="14" font-weight="600" fill="#15407f" font-family="'Segoe UI', 'Helvetica Neue', Helvetica, Arial, sans-serif">Resubmit</text><g filter="url(#sh)"><circle cx="680" cy="330" r="54" fill="#e9f1fd" stroke="#2f6fd0" stroke-width="2.4"/></g><text x="680" y="314" text-anchor="middle" dominant-baseline="central" font-size="14" font-weight="600" fill="#15407f" font-family="'Segoe UI', 'Helvetica Neue', Helvetica, Arial, sans-serif">2.2</text><text x="680" y="330" text-anchor="middle" dominant-baseline="central" font-size="14" font-weight="600" fill="#15407f" font-family="'Segoe UI', 'Helvetica Neue', Helvetica, Arial, sans-serif">Review &amp;</text><text x="680" y="346" text-anchor="middle" dominant-baseline="central" font-size="14" font-weight="600" fill="#15407f" font-family="'Segoe UI', 'Helvetica Neue', Helvetica, Arial, sans-serif">Validate</text><g filter="url(#sh)"><circle cx="940" cy="330" r="54" fill="#e9f1fd" stroke="#2f6fd0" stroke-width="2.4"/></g><text x="940" y="314" text-anchor="middle" dominant-baseline="central" font-size="14" font-weight="600" fill="#15407f" font-family="'Segoe UI', 'Helvetica Neue', Helvetica, Arial, sans-serif">2.3</text><text x="940" y="330" text-anchor="middle" dominant-baseline="central" font-size="14" font-weight="600" fill="#15407f" font-family="'Segoe UI', 'Helvetica Neue', Helvetica, Arial, sans-serif">Record</text><text x="940" y="346" text-anchor="middle" dominant-baseline="central" font-size="14" font-weight="600" fill="#15407f" font-family="'Segoe UI', 'Helvetica Neue', Helvetica, Arial, sans-serif">Decision</text><g filter="url(#sh)"><circle cx="1200" cy="330" r="54" fill="#e9f1fd" stroke="#2f6fd0" stroke-width="2.4"/></g><text x="1200" y="314" text-anchor="middle" dominant-baseline="central" font-size="14" font-weight="600" fill="#15407f" font-family="'Segoe UI', 'Helvetica Neue', Helvetica, Arial, sans-serif">2.5</text><text x="1200" y="330" text-anchor="middle" dominant-baseline="central" font-size="14" font-weight="600" fill="#15407f" font-family="'Segoe UI', 'Helvetica Neue', Helvetica, Arial, sans-serif">Payment &amp;</text><text x="1200" y="346" text-anchor="middle" dominant-baseline="central" font-size="14" font-weight="600" fill="#15407f" font-family="'Segoe UI', 'Helvetica Neue', Helvetica, Arial, sans-serif">Occupy</text><g filter="url(#sh)"><circle cx="250" cy="560" r="54" fill="#e9f1fd" stroke="#2f6fd0" stroke-width="2.4"/></g><text x="250" y="544" text-anchor="middle" dominant-baseline="central" font-size="14" font-weight="600" fill="#15407f" font-family="'Segoe UI', 'Helvetica Neue', Helvetica, Arial, sans-serif">2.4</text><text x="250" y="560" text-anchor="middle" dominant-baseline="central" font-size="14" font-weight="600" fill="#15407f" font-family="'Segoe UI', 'Helvetica Neue', Helvetica, Arial, sans-serif">Handle</text><text x="250" y="576" text-anchor="middle" dominant-baseline="central" font-size="14" font-weight="600" fill="#15407f" font-family="'Segoe UI', 'Helvetica Neue', Helvetica, Arial, sans-serif">Appeal</text><g filter="url(#sh)"><circle cx="940" cy="500" r="46" fill="#e6f5f1" stroke="#0f766e" stroke-width="2.4"/></g><text x="940" y="492" text-anchor="middle" dominant-baseline="central" font-size="14" font-weight="600" fill="#0c5f59" font-family="'Segoe UI', 'Helvetica Neue', Helvetica, Arial, sans-serif">6.0</text><text x="940" y="508" text-anchor="middle" dominant-baseline="central" font-size="14" font-weight="600" fill="#0c5f59" font-family="'Segoe UI', 'Helvetica Neue', Helvetica, Arial, sans-serif">Notify</text><g filter="url(#sh)"><circle cx="1200" cy="500" r="46" fill="#e6f5f1" stroke="#0f766e" stroke-width="2.4"/></g><text x="1200" y="492" text-anchor="middle" dominant-baseline="central" font-size="14" font-weight="600" fill="#0c5f59" font-family="'Segoe UI', 'Helvetica Neue', Helvetica, Arial, sans-serif">5.0</text><text x="1200" y="508" text-anchor="middle" dominant-baseline="central" font-size="14" font-weight="600" fill="#0c5f59" font-family="'Segoe UI', 'Helvetica Neue', Helvetica, Arial, sans-serif">Payments</text><g><line x1="255" y1="707" x2="405" y2="707" stroke="#b06a12" stroke-width="2.4" stroke-linecap="round"/><line x1="255" y1="753" x2="405" y2="753" stroke="#b06a12" stroke-width="2.4" stroke-linecap="round"/><line x1="289" y1="707" x2="289" y2="753" stroke="#b06a12" stroke-width="2.2"/><text x="272" y="730" text-anchor="middle" dominant-baseline="central" font-size="13" font-weight="700" fill="#7a4810" font-family="'Segoe UI', 'Helvetica Neue', Helvetica, Arial, sans-serif">D1</text><text x="347" y="730" text-anchor="middle" dominant-baseline="central" font-size="13.5" font-weight="600" fill="#7a4810" font-family="'Segoe UI', 'Helvetica Neue', Helvetica, Arial, sans-serif">Accounts</text></g><g><line x1="480" y1="707" x2="640" y2="707" stroke="#b06a12" stroke-width="2.4" stroke-linecap="round"/><line x1="480" y1="753" x2="640" y2="753" stroke="#b06a12" stroke-width="2.4" stroke-linecap="round"/><line x1="514" y1="707" x2="514" y2="753" stroke="#b06a12" stroke-width="2.2"/><text x="497" y="730" text-anchor="middle" dominant-baseline="central" font-size="13" font-weight="700" fill="#7a4810" font-family="'Segoe UI', 'Helvetica Neue', Helvetica, Arial, sans-serif">D3</text><text x="577" y="730" text-anchor="middle" dominant-baseline="central" font-size="13.5" font-weight="600" fill="#7a4810" font-family="'Segoe UI', 'Helvetica Neue', Helvetica, Arial, sans-serif">Applications</text></g><g><line x1="770" y1="707" x2="910" y2="707" stroke="#b06a12" stroke-width="2.4" stroke-linecap="round"/><line x1="770" y1="753" x2="910" y2="753" stroke="#b06a12" stroke-width="2.4" stroke-linecap="round"/><line x1="804" y1="707" x2="804" y2="753" stroke="#b06a12" stroke-width="2.2"/><text x="787" y="730" text-anchor="middle" dominant-baseline="central" font-size="13" font-weight="700" fill="#7a4810" font-family="'Segoe UI', 'Helvetica Neue', Helvetica, Arial, sans-serif">D2</text><text x="857" y="730" text-anchor="middle" dominant-baseline="central" font-size="13.5" font-weight="600" fill="#7a4810" font-family="'Segoe UI', 'Helvetica Neue', Helvetica, Arial, sans-serif">Stalls</text></g>
</svg>