<svg viewBox="0 0 1580 1000" xmlns="http://www.w3.org/2000/svg" font-family="'Segoe UI', 'Helvetica Neue', Helvetica, Arial, sans-serif">
  <defs>
    <filter id="sh" x="-20%" y="-20%" width="140%" height="140%"><feDropShadow dx="0" dy="1.6" stdDeviation="1.8" flood-color="#0f172a" flood-opacity="0.18"/></filter>
    <marker id="arr" markerWidth="11" markerHeight="11" refX="8.5" refY="4.5" orient="auto"><path d="M0,0 L9,4.5 L0,9 L2.6,4.5 Z" fill="#6a7686"/></marker>
    <marker id="arrS" markerWidth="11" markerHeight="11" refX="0.5" refY="4.5" orient="auto"><path d="M9,0 L0,4.5 L9,9 L6.4,4.5 Z" fill="#6a7686"/></marker>
    <marker id="mOne" markerWidth="18" markerHeight="16" refX="15" refY="8" orient="auto"><path d="M7,2 V14 M11,2 V14" stroke="#6a7686" stroke-width="1.7" fill="none"/></marker>
    <marker id="mMany" markerWidth="22" markerHeight="18" refX="19" refY="9" orient="auto"><circle cx="4" cy="9" r="3" fill="#fff" stroke="#6a7686" stroke-width="1.5"/><path d="M19,2 L10,9 L19,16" fill="none" stroke="#6a7686" stroke-width="1.7"/></marker>
  </defs>
  <rect x="0" y="0" width="1580" height="1000" fill="#ffffff"/>
  <text x="40" y="48" font-size="22" font-weight="700" fill="#0f172a" font-family="'Segoe UI', 'Helvetica Neue', Helvetica, Arial, sans-serif">MyTalipapa — DFD Level 1 (System Decomposition)</text>
  <line x1="40" y1="64" x2="1540" y2="64" stroke="#e2e8f0" stroke-width="2"/>
  <path d="M 142 148 L 142 328" fill="none" stroke="#6a7686" stroke-width="1.8" marker-end="url(#arr)"/>
<path d="M 158 328 L 158 148" fill="none" stroke="#6a7686" stroke-width="1.8" marker-end="url(#arr)"/>
<path d="M 482 148 L 482 296 Q 482 300 486 300 L 486 300 Q 490 300 490 304 L 490 328" fill="none" stroke="#6a7686" stroke-width="1.8" marker-end="url(#arr)"/>
<path d="M 528 148 L 528 240 Q 528 252 540 252 L 810 252 Q 822 252 822 264 L 822 328" fill="none" stroke="#6a7686" stroke-width="1.8" marker-end="url(#arr)"/>
<path d="M 838 328 L 838 300 Q 838 288 826 288 L 524 288 Q 512 288 512 276 L 512 148" fill="none" stroke="#6a7686" stroke-width="1.8" marker-end="url(#arr)"/>
<path d="M 822 148 L 822 206 Q 822 218 810 218 L 510 218 Q 498 218 498 230 L 498 328" fill="none" stroke="#6a7686" stroke-width="1.8" marker-end="url(#arr)"/>
<path d="M 842 148 L 842 240 Q 842 252 854 252 L 1150 252 Q 1162 252 1162 264 L 1162 328" fill="none" stroke="#6a7686" stroke-width="1.8" marker-end="url(#arr)"/>
<path d="M 1162 148 L 1162 206 Q 1162 218 1150 218 L 854 218 Q 842 218 842 230 L 842 328" fill="none" stroke="#6a7686" stroke-width="1.8" marker-end="url(#arr)"/>
<path d="M 1186 148 L 1186 328" fill="none" stroke="#6a7686" stroke-width="1.8" marker-end="url(#arr)"/>
<path d="M 814 430 L 814 488 Q 814 500 802 500 L 612 500 Q 600 500 600 512 L 600 568" fill="none" stroke="#6a7686" stroke-width="1.8" marker-end="url(#arr)"/>
<path d="M 1154 430 L 1154 520 Q 1154 532 1142 532 L 1022 532 Q 1010 532 1010 544 L 1010 568" fill="none" stroke="#6a7686" stroke-width="1.8" marker-end="url(#arr)"/>
<path d="M 846 430 L 846 546 Q 846 558 858 558 L 1005 558 Q 1010 558 1010 563 L 1010 568" fill="none" stroke="#6a7686" stroke-width="1.8" marker-end="url(#arr)"/>
<path d="M 1062 620 L 1306 620" fill="none" stroke="#6a7686" stroke-width="1.8" marker-end="url(#arr)"/>
<path d="M 150 432 L 150 877" fill="none" stroke="#6a7686" stroke-width="1.8" marker-end="url(#arr)"/>
<path d="M 474 432 L 474 810 Q 474 822 462 822 L 442 822 Q 430 822 430 834 L 430 877" fill="none" stroke="#6a7686" stroke-width="1.8" marker-end="url(#arr)"/>
<path d="M 846 432 L 846 758 Q 846 770 858 770 L 878 770 Q 890 770 890 782 L 890 877" fill="none" stroke="#6a7686" stroke-width="1.8" marker-end="url(#arr)"/>
<path d="M 168 430 L 168 548 Q 168 560 180 560 L 644 560 Q 656 560 656 572 L 656 877" fill="none" stroke="#6a7686" stroke-width="1.8" marker-end="url(#arr)"/>
<path d="M 1154 432 L 1154 700 Q 1154 712 1142 712 L 678 712 Q 666 712 666 724 L 666 877" fill="none" stroke="#6a7686" stroke-width="1.8" marker-end="url(#arr)"/>
<path d="M 1186 432 L 1186 830 Q 1186 842 1198 842 L 1288 842 Q 1300 842 1300 854 L 1300 877" fill="none" stroke="#6a7686" stroke-width="1.8" marker-end="url(#arr)"/>
<path d="M 616 672 L 616 754 Q 616 766 628 766 L 1108 766 Q 1120 766 1120 778 L 1120 877" fill="none" stroke="#6a7686" stroke-width="1.8" marker-end="url(#arr)"/>
<path d="M 1024 672 L 1024 808 Q 1024 820 1036 820 L 1448 820 Q 1460 820 1460 832 L 1460 877" fill="none" stroke="#6a7686" stroke-width="1.8" marker-end="url(#arr)"/>
<g><rect x="53.5" y="239" width="113" height="22" rx="4" fill="#ffffff" opacity="0.95"/><text x="110" y="250" text-anchor="middle" dominant-baseline="central" font-size="12.5" fill="#39455a" font-family="'Segoe UI', 'Helvetica Neue', Helvetica, Arial, sans-serif">search / select</text></g><g><rect x="154.2" y="224" width="119.6" height="22" rx="4" fill="#ffffff" opacity="0.95"/><text x="214" y="235" text-anchor="middle" dominant-baseline="central" font-size="12.5" fill="#39455a" font-family="'Segoe UI', 'Helvetica Neue', Helvetica, Arial, sans-serif">route · 360 · AR</text></g><g><rect x="410.2" y="194" width="119.6" height="22" rx="4" fill="#ffffff" opacity="0.95"/><text x="470" y="205" text-anchor="middle" dominant-baseline="central" font-size="12.5" fill="#39455a" font-family="'Segoe UI', 'Helvetica Neue', Helvetica, Arial, sans-serif">register / login</text></g><g><rect x="621.8" y="241" width="106.39999999999999" height="22" rx="4" fill="#ffffff" opacity="0.95"/><text x="675" y="252" text-anchor="middle" dominant-baseline="central" font-size="12.5" fill="#39455a" font-family="'Segoe UI', 'Helvetica Neue', Helvetica, Arial, sans-serif">apply / appeal</text></g><g><rect x="618.5" y="277" width="113" height="22" rx="4" fill="#ffffff" opacity="0.95"/><text x="675" y="288" text-anchor="middle" dominant-baseline="central" font-size="12.5" fill="#39455a" font-family="'Segoe UI', 'Helvetica Neue', Helvetica, Arial, sans-serif">status / reason</text></g><g><rect x="590.2" y="207" width="119.6" height="22" rx="4" fill="#ffffff" opacity="0.95"/><text x="650" y="218" text-anchor="middle" dominant-baseline="central" font-size="12.5" fill="#39455a" font-family="'Segoe UI', 'Helvetica Neue', Helvetica, Arial, sans-serif">approve accounts</text></g><g><rect x="979.9" y="241" width="60.199999999999996" height="22" rx="4" fill="#ffffff" opacity="0.95"/><text x="1010" y="252" text-anchor="middle" dominant-baseline="central" font-size="12.5" fill="#39455a" font-family="'Segoe UI', 'Helvetica Neue', Helvetica, Arial, sans-serif">records</text></g><g><rect x="1013.2" y="207" width="53.599999999999994" height="22" rx="4" fill="#ffffff" opacity="0.95"/><text x="1040" y="218" text-anchor="middle" dominant-baseline="central" font-size="12.5" fill="#39455a" font-family="'Segoe UI', 'Helvetica Neue', Helvetica, Arial, sans-serif">review</text></g><g><rect x="1215.4" y="239" width="93.19999999999999" height="22" rx="4" fill="#ffffff" opacity="0.95"/><text x="1262" y="250" text-anchor="middle" dominant-baseline="central" font-size="12.5" fill="#39455a" font-family="'Segoe UI', 'Helvetica Neue', Helvetica, Arial, sans-serif">manage stall</text></g><g><rect x="640.6" y="489" width="132.8" height="22" rx="4" fill="#ffffff" opacity="0.95"/><text x="707" y="500" text-anchor="middle" dominant-baseline="central" font-size="12.5" fill="#39455a" font-family="'Segoe UI', 'Helvetica Neue', Helvetica, Arial, sans-serif">proceed to payment</text></g><g><rect x="1071.2" y="521" width="53.599999999999994" height="22" rx="4" fill="#ffffff" opacity="0.95"/><text x="1098" y="532" text-anchor="middle" dominant-baseline="central" font-size="12.5" fill="#39455a" font-family="'Segoe UI', 'Helvetica Neue', Helvetica, Arial, sans-serif">notify</text></g><g><rect x="903.2" y="547" width="53.599999999999994" height="22" rx="4" fill="#ffffff" opacity="0.95"/><text x="930" y="558" text-anchor="middle" dominant-baseline="central" font-size="12.5" fill="#39455a" font-family="'Segoe UI', 'Helvetica Neue', Helvetica, Arial, sans-serif">notify</text></g><g><rect x="1140.7" y="609" width="86.6" height="22" rx="4" fill="#ffffff" opacity="0.95"/><text x="1184" y="620" text-anchor="middle" dominant-baseline="central" font-size="12.5" fill="#39455a" font-family="'Segoe UI', 'Helvetica Neue', Helvetica, Arial, sans-serif">email / SMS</text></g><g><rect x="162.5" y="689" width="47" height="22" rx="4" fill="#ffffff" opacity="0.95"/><text x="186" y="700" text-anchor="middle" dominant-baseline="central" font-size="12.5" fill="#39455a" font-family="'Segoe UI', 'Helvetica Neue', Helvetica, Arial, sans-serif">graph</text></g><g><rect x="391.4" y="649" width="93.19999999999999" height="22" rx="4" fill="#ffffff" opacity="0.95"/><text x="438" y="660" text-anchor="middle" dominant-baseline="central" font-size="12.5" fill="#39455a" font-family="'Segoe UI', 'Helvetica Neue', Helvetica, Arial, sans-serif">read / write</text></g><g><rect x="765.4" y="629" width="93.19999999999999" height="22" rx="4" fill="#ffffff" opacity="0.95"/><text x="812" y="640" text-anchor="middle" dominant-baseline="central" font-size="12.5" fill="#39455a" font-family="'Segoe UI', 'Helvetica Neue', Helvetica, Arial, sans-serif">applications</text></g><g><rect x="348.7" y="549" width="86.6" height="22" rx="4" fill="#ffffff" opacity="0.95"/><text x="392" y="560" text-anchor="middle" dominant-baseline="central" font-size="12.5" fill="#39455a" font-family="'Segoe UI', 'Helvetica Neue', Helvetica, Arial, sans-serif">read stalls</text></g><g><rect x="889.2" y="701" width="53.599999999999994" height="22" rx="4" fill="#ffffff" opacity="0.95"/><text x="916" y="712" text-anchor="middle" dominant-baseline="central" font-size="12.5" fill="#39455a" font-family="'Segoe UI', 'Helvetica Neue', Helvetica, Arial, sans-serif">stalls</text></g><g><rect x="1187.3" y="709" width="73.4" height="22" rx="4" fill="#ffffff" opacity="0.95"/><text x="1224" y="720" text-anchor="middle" dominant-baseline="central" font-size="12.5" fill="#39455a" font-family="'Segoe UI', 'Helvetica Neue', Helvetica, Arial, sans-serif">contracts</text></g><g><rect x="830.6" y="755" width="66.8" height="22" rx="4" fill="#ffffff" opacity="0.95"/><text x="864" y="766" text-anchor="middle" dominant-baseline="central" font-size="12.5" fill="#39455a" font-family="'Segoe UI', 'Helvetica Neue', Helvetica, Arial, sans-serif">payments</text></g><g><rect x="1235.1" y="809" width="33.8" height="22" rx="4" fill="#ffffff" opacity="0.95"/><text x="1252" y="820" text-anchor="middle" dominant-baseline="central" font-size="12.5" fill="#39455a" font-family="'Segoe UI', 'Helvetica Neue', Helvetica, Arial, sans-serif">log</text></g><g filter="url(#sh)"><rect x="66" y="92" width="168" height="56" rx="5" fill="#f4f6f9" stroke="#52617a" stroke-width="2.1"/></g><text x="150" y="120" text-anchor="middle" dominant-baseline="central" font-size="15" font-weight="600" fill="#293445" font-family="'Segoe UI', 'Helvetica Neue', Helvetica, Arial, sans-serif">Shopper</text><g filter="url(#sh)"><rect x="398" y="92" width="184" height="56" rx="5" fill="#f4f6f9" stroke="#52617a" stroke-width="2.1"/></g><text x="490" y="120" text-anchor="middle" dominant-baseline="central" font-size="15" font-weight="600" fill="#293445" font-family="'Segoe UI', 'Helvetica Neue', Helvetica, Arial, sans-serif">Renter / Applicant</text><g filter="url(#sh)"><rect x="746" y="92" width="168" height="56" rx="5" fill="#f4f6f9" stroke="#52617a" stroke-width="2.1"/></g><text x="830" y="120" text-anchor="middle" dominant-baseline="central" font-size="15" font-weight="600" fill="#293445" font-family="'Segoe UI', 'Helvetica Neue', Helvetica, Arial, sans-serif">Admin</text><g filter="url(#sh)"><rect x="1086" y="92" width="168" height="56" rx="5" fill="#f4f6f9" stroke="#52617a" stroke-width="2.1"/></g><text x="1170" y="120" text-anchor="middle" dominant-baseline="central" font-size="15" font-weight="600" fill="#293445" font-family="'Segoe UI', 'Helvetica Neue', Helvetica, Arial, sans-serif">Contractor</text><g filter="url(#sh)"><rect x="1315" y="592" width="150" height="56" rx="5" fill="#f4f6f9" stroke="#52617a" stroke-width="2.1"/></g><text x="1390" y="611" text-anchor="middle" dominant-baseline="central" font-size="15" font-weight="600" fill="#293445" font-family="'Segoe UI', 'Helvetica Neue', Helvetica, Arial, sans-serif">Notification</text><text x="1390" y="629" text-anchor="middle" dominant-baseline="central" font-size="15" font-weight="600" fill="#293445" font-family="'Segoe UI', 'Helvetica Neue', Helvetica, Arial, sans-serif">Gateway</text><g filter="url(#sh)"><circle cx="150" cy="380" r="52" fill="#e9f1fd" stroke="#2f6fd0" stroke-width="2.4"/></g><text x="150" y="364" text-anchor="middle" dominant-baseline="central" font-size="14" font-weight="600" fill="#15407f" font-family="'Segoe UI', 'Helvetica Neue', Helvetica, Arial, sans-serif">4.0</text><text x="150" y="380" text-anchor="middle" dominant-baseline="central" font-size="14" font-weight="600" fill="#15407f" font-family="'Segoe UI', 'Helvetica Neue', Helvetica, Arial, sans-serif">Navigate &amp;</text><text x="150" y="396" text-anchor="middle" dominant-baseline="central" font-size="14" font-weight="600" fill="#15407f" font-family="'Segoe UI', 'Helvetica Neue', Helvetica, Arial, sans-serif">Find Stalls</text><g filter="url(#sh)"><circle cx="490" cy="380" r="52" fill="#e9f1fd" stroke="#2f6fd0" stroke-width="2.4"/></g><text x="490" y="364" text-anchor="middle" dominant-baseline="central" font-size="14" font-weight="600" fill="#15407f" font-family="'Segoe UI', 'Helvetica Neue', Helvetica, Arial, sans-serif">1.0</text><text x="490" y="380" text-anchor="middle" dominant-baseline="central" font-size="14" font-weight="600" fill="#15407f" font-family="'Segoe UI', 'Helvetica Neue', Helvetica, Arial, sans-serif">Manage</text><text x="490" y="396" text-anchor="middle" dominant-baseline="central" font-size="14" font-weight="600" fill="#15407f" font-family="'Segoe UI', 'Helvetica Neue', Helvetica, Arial, sans-serif">Accounts</text><g filter="url(#sh)"><circle cx="830" cy="380" r="52" fill="#e9f1fd" stroke="#2f6fd0" stroke-width="2.4"/></g><text x="830" y="364" text-anchor="middle" dominant-baseline="central" font-size="14" font-weight="600" fill="#15407f" font-family="'Segoe UI', 'Helvetica Neue', Helvetica, Arial, sans-serif">2.0</text><text x="830" y="380" text-anchor="middle" dominant-baseline="central" font-size="14" font-weight="600" fill="#15407f" font-family="'Segoe UI', 'Helvetica Neue', Helvetica, Arial, sans-serif">Applications</text><text x="830" y="396" text-anchor="middle" dominant-baseline="central" font-size="14" font-weight="600" fill="#15407f" font-family="'Segoe UI', 'Helvetica Neue', Helvetica, Arial, sans-serif">&amp; Approval</text><g filter="url(#sh)"><circle cx="1170" cy="380" r="52" fill="#e9f1fd" stroke="#2f6fd0" stroke-width="2.4"/></g><text x="1170" y="364" text-anchor="middle" dominant-baseline="central" font-size="14" font-weight="600" fill="#15407f" font-family="'Segoe UI', 'Helvetica Neue', Helvetica, Arial, sans-serif">3.0</text><text x="1170" y="380" text-anchor="middle" dominant-baseline="central" font-size="14" font-weight="600" fill="#15407f" font-family="'Segoe UI', 'Helvetica Neue', Helvetica, Arial, sans-serif">Stalls &amp;</text><text x="1170" y="396" text-anchor="middle" dominant-baseline="central" font-size="14" font-weight="600" fill="#15407f" font-family="'Segoe UI', 'Helvetica Neue', Helvetica, Arial, sans-serif">Contracts</text><g filter="url(#sh)"><circle cx="600" cy="620" r="52" fill="#e9f1fd" stroke="#2f6fd0" stroke-width="2.4"/></g><text x="600" y="604" text-anchor="middle" dominant-baseline="central" font-size="14" font-weight="600" fill="#15407f" font-family="'Segoe UI', 'Helvetica Neue', Helvetica, Arial, sans-serif">5.0</text><text x="600" y="620" text-anchor="middle" dominant-baseline="central" font-size="14" font-weight="600" fill="#15407f" font-family="'Segoe UI', 'Helvetica Neue', Helvetica, Arial, sans-serif">Process</text><text x="600" y="636" text-anchor="middle" dominant-baseline="central" font-size="14" font-weight="600" fill="#15407f" font-family="'Segoe UI', 'Helvetica Neue', Helvetica, Arial, sans-serif">Payments</text><g filter="url(#sh)"><circle cx="1010" cy="620" r="52" fill="#e9f1fd" stroke="#2f6fd0" stroke-width="2.4"/></g><text x="1010" y="604" text-anchor="middle" dominant-baseline="central" font-size="14" font-weight="600" fill="#15407f" font-family="'Segoe UI', 'Helvetica Neue', Helvetica, Arial, sans-serif">6.0</text><text x="1010" y="620" text-anchor="middle" dominant-baseline="central" font-size="14" font-weight="600" fill="#15407f" font-family="'Segoe UI', 'Helvetica Neue', Helvetica, Arial, sans-serif">Send</text><text x="1010" y="636" text-anchor="middle" dominant-baseline="central" font-size="14" font-weight="600" fill="#15407f" font-family="'Segoe UI', 'Helvetica Neue', Helvetica, Arial, sans-serif">Notifications</text><g><line x1="74" y1="877" x2="226" y2="877" stroke="#b06a12" stroke-width="2.4" stroke-linecap="round"/><line x1="74" y1="923" x2="226" y2="923" stroke="#b06a12" stroke-width="2.4" stroke-linecap="round"/><line x1="108" y1="877" x2="108" y2="923" stroke="#b06a12" stroke-width="2.2"/><text x="91" y="900" text-anchor="middle" dominant-baseline="central" font-size="13" font-weight="700" fill="#7a4810" font-family="'Segoe UI', 'Helvetica Neue', Helvetica, Arial, sans-serif">D7</text><text x="167" y="900" text-anchor="middle" dominant-baseline="central" font-size="13.5" font-weight="600" fill="#7a4810" font-family="'Segoe UI', 'Helvetica Neue', Helvetica, Arial, sans-serif">Map / Pathway</text></g><g><line x1="354" y1="877" x2="506" y2="877" stroke="#b06a12" stroke-width="2.4" stroke-linecap="round"/><line x1="354" y1="923" x2="506" y2="923" stroke="#b06a12" stroke-width="2.4" stroke-linecap="round"/><line x1="388" y1="877" x2="388" y2="923" stroke="#b06a12" stroke-width="2.2"/><text x="371" y="900" text-anchor="middle" dominant-baseline="central" font-size="13" font-weight="700" fill="#7a4810" font-family="'Segoe UI', 'Helvetica Neue', Helvetica, Arial, sans-serif">D1</text><text x="447" y="900" text-anchor="middle" dominant-baseline="central" font-size="13.5" font-weight="600" fill="#7a4810" font-family="'Segoe UI', 'Helvetica Neue', Helvetica, Arial, sans-serif">Accounts</text></g><g><line x1="584" y1="877" x2="736" y2="877" stroke="#b06a12" stroke-width="2.4" stroke-linecap="round"/><line x1="584" y1="923" x2="736" y2="923" stroke="#b06a12" stroke-width="2.4" stroke-linecap="round"/><line x1="618" y1="877" x2="618" y2="923" stroke="#b06a12" stroke-width="2.2"/><text x="601" y="900" text-anchor="middle" dominant-baseline="central" font-size="13" font-weight="700" fill="#7a4810" font-family="'Segoe UI', 'Helvetica Neue', Helvetica, Arial, sans-serif">D2</text><text x="677" y="900" text-anchor="middle" dominant-baseline="central" font-size="13.5" font-weight="600" fill="#7a4810" font-family="'Segoe UI', 'Helvetica Neue', Helvetica, Arial, sans-serif">Stalls</text></g><g><line x1="814" y1="877" x2="966" y2="877" stroke="#b06a12" stroke-width="2.4" stroke-linecap="round"/><line x1="814" y1="923" x2="966" y2="923" stroke="#b06a12" stroke-width="2.4" stroke-linecap="round"/><line x1="848" y1="877" x2="848" y2="923" stroke="#b06a12" stroke-width="2.2"/><text x="831" y="900" text-anchor="middle" dominant-baseline="central" font-size="13" font-weight="700" fill="#7a4810" font-family="'Segoe UI', 'Helvetica Neue', Helvetica, Arial, sans-serif">D3</text><text x="907" y="900" text-anchor="middle" dominant-baseline="central" font-size="13.5" font-weight="600" fill="#7a4810" font-family="'Segoe UI', 'Helvetica Neue', Helvetica, Arial, sans-serif">Applications</text></g><g><line x1="1044" y1="877" x2="1196" y2="877" stroke="#b06a12" stroke-width="2.4" stroke-linecap="round"/><line x1="1044" y1="923" x2="1196" y2="923" stroke="#b06a12" stroke-width="2.4" stroke-linecap="round"/><line x1="1078" y1="877" x2="1078" y2="923" stroke="#b06a12" stroke-width="2.2"/><text x="1061" y="900" text-anchor="middle" dominant-baseline="central" font-size="13" font-weight="700" fill="#7a4810" font-family="'Segoe UI', 'Helvetica Neue', Helvetica, Arial, sans-serif">D4</text><text x="1137" y="900" text-anchor="middle" dominant-baseline="central" font-size="13.5" font-weight="600" fill="#7a4810" font-family="'Segoe UI', 'Helvetica Neue', Helvetica, Arial, sans-serif">Payments</text></g><g><line x1="1224" y1="877" x2="1376" y2="877" stroke="#b06a12" stroke-width="2.4" stroke-linecap="round"/><line x1="1224" y1="923" x2="1376" y2="923" stroke="#b06a12" stroke-width="2.4" stroke-linecap="round"/><line x1="1258" y1="877" x2="1258" y2="923" stroke="#b06a12" stroke-width="2.2"/><text x="1241" y="900" text-anchor="middle" dominant-baseline="central" font-size="13" font-weight="700" fill="#7a4810" font-family="'Segoe UI', 'Helvetica Neue', Helvetica, Arial, sans-serif">D5</text><text x="1317" y="900" text-anchor="middle" dominant-baseline="central" font-size="13.5" font-weight="600" fill="#7a4810" font-family="'Segoe UI', 'Helvetica Neue', Helvetica, Arial, sans-serif">Contracts</text></g><g><line x1="1384" y1="877" x2="1536" y2="877" stroke="#b06a12" stroke-width="2.4" stroke-linecap="round"/><line x1="1384" y1="923" x2="1536" y2="923" stroke="#b06a12" stroke-width="2.4" stroke-linecap="round"/><line x1="1418" y1="877" x2="1418" y2="923" stroke="#b06a12" stroke-width="2.2"/><text x="1401" y="900" text-anchor="middle" dominant-baseline="central" font-size="13" font-weight="700" fill="#7a4810" font-family="'Segoe UI', 'Helvetica Neue', Helvetica, Arial, sans-serif">D6</text><text x="1477" y="900" text-anchor="middle" dominant-baseline="central" font-size="13.5" font-weight="600" fill="#7a4810" font-family="'Segoe UI', 'Helvetica Neue', Helvetica, Arial, sans-serif">Notifications</text></g>
</svg>