<svg viewBox="0 0 1500 640" xmlns="http://www.w3.org/2000/svg" font-family="'Segoe UI', 'Helvetica Neue', Helvetica, Arial, sans-serif">
  <defs>
    <filter id="sh" x="-20%" y="-20%" width="140%" height="140%"><feDropShadow dx="0" dy="1.6" stdDeviation="1.8" flood-color="#0f172a" flood-opacity="0.18"/></filter>
    <marker id="arr" markerWidth="11" markerHeight="11" refX="8.5" refY="4.5" orient="auto"><path d="M0,0 L9,4.5 L0,9 L2.6,4.5 Z" fill="#6a7686"/></marker>
    <marker id="arrS" markerWidth="11" markerHeight="11" refX="0.5" refY="4.5" orient="auto"><path d="M9,0 L0,4.5 L9,9 L6.4,4.5 Z" fill="#6a7686"/></marker>
    <marker id="mOne" markerWidth="18" markerHeight="16" refX="15" refY="8" orient="auto"><path d="M7,2 V14 M11,2 V14" stroke="#6a7686" stroke-width="1.7" fill="none"/></marker>
    <marker id="mMany" markerWidth="22" markerHeight="18" refX="19" refY="9" orient="auto"><circle cx="4" cy="9" r="3" fill="#fff" stroke="#6a7686" stroke-width="1.5"/><path d="M19,2 L10,9 L19,16" fill="none" stroke="#6a7686" stroke-width="1.7"/></marker>
  </defs>
  <rect x="0" y="0" width="1500" height="640" fill="#ffffff"/>
  <text x="40" y="48" font-size="22" font-weight="700" fill="#0f172a" font-family="'Segoe UI', 'Helvetica Neue', Helvetica, Arial, sans-serif">DFD Level 3 — Process 2.2 Review &amp; Validate</text>
  <line x1="40" y1="64" x2="1460" y2="64" stroke="#e2e8f0" stroke-width="2"/>
  <path d="M 200 380 L 282 380" fill="none" stroke="#6a7686" stroke-width="1.8" marker-end="url(#arr)"/><path d="M 398 380 L 552 380" fill="none" stroke="#6a7686" stroke-width="1.8" marker-end="url(#arr)"/><path d="M 668 380 L 822 380" fill="none" stroke="#6a7686" stroke-width="1.8" marker-end="url(#arr)"/><path d="M 938 380 L 1092 380" fill="none" stroke="#6a7686" stroke-width="1.8" marker-end="url(#arr)"/><path d="M 1208 380 L 1300 380" fill="none" stroke="#6a7686" stroke-width="1.8" marker-end="url(#arr)"/><path d="M 800 178 L 800 288 Q 800 300 812 300 L 842 300 Q 854 300 854 312 L 854 328" fill="none" stroke="#6a7686" stroke-width="1.8" marker-end="url(#arr)"/><path d="M 1000 178 L 1000 288 Q 1000 300 988 300 L 918 300 Q 906 300 906 312 L 906 328" fill="none" stroke="#6a7686" stroke-width="1.8" marker-end="url(#arr)"/><path d="M 316 438 L 316 540" fill="none" stroke="#6a7686" stroke-width="1.8" marker-end="url(#arr)"/><path d="M 364 438 L 364 488 Q 364 500 376 500 L 548 500 Q 560 500 560 512 L 560 540" fill="none" stroke="#6a7686" stroke-width="1.8" marker-end="url(#arr)"/><path d="M 610 438 L 610 488 Q 610 500 622 500 L 828 500 Q 840 500 840 512 L 840 540" fill="none" stroke="#6a7686" stroke-width="1.8" marker-end="url(#arr)"/><g><rect x="226.7" y="353" width="86.6" height="22" rx="4" fill="#ffffff" opacity="0.95"/><text x="270" y="364" text-anchor="middle" dominant-baseline="central" font-size="12.5" fill="#39455a" font-family="'Segoe UI', 'Helvetica Neue', Helvetica, Arial, sans-serif">application</text></g><g><rect x="428.4" y="353" width="93.19999999999999" height="22" rx="4" fill="#ffffff" opacity="0.95"/><text x="475" y="364" text-anchor="middle" dominant-baseline="central" font-size="12.5" fill="#39455a" font-family="'Segoe UI', 'Helvetica Neue', Helvetica, Arial, sans-serif">applicant OK</text></g><g><rect x="691.8" y="353" width="106.39999999999999" height="22" rx="4" fill="#ffffff" opacity="0.95"/><text x="745" y="364" text-anchor="middle" dominant-baseline="central" font-size="12.5" fill="#39455a" font-family="'Segoe UI', 'Helvetica Neue', Helvetica, Arial, sans-serif">+ stall status</text></g><g><rect x="968.4" y="353" width="93.19999999999999" height="22" rx="4" fill="#ffffff" opacity="0.95"/><text x="1015" y="364" text-anchor="middle" dominant-baseline="central" font-size="12.5" fill="#39455a" font-family="'Segoe UI', 'Helvetica Neue', Helvetica, Arial, sans-serif">raw decision</text></g><g><rect x="1166.9" y="353" width="126.19999999999999" height="22" rx="4" fill="#ffffff" opacity="0.95"/><text x="1230" y="364" text-anchor="middle" dominant-baseline="central" font-size="12.5" fill="#39455a" font-family="'Segoe UI', 'Helvetica Neue', Helvetica, Arial, sans-serif">decision + reason</text></g><g><rect x="766.6" y="239" width="66.8" height="22" rx="4" fill="#ffffff" opacity="0.95"/><text x="800" y="250" text-anchor="middle" dominant-baseline="central" font-size="12.5" fill="#39455a" font-family="'Segoe UI', 'Helvetica Neue', Helvetica, Arial, sans-serif">decision</text></g><g><rect x="966.6" y="239" width="66.8" height="22" rx="4" fill="#ffffff" opacity="0.95"/><text x="1000" y="250" text-anchor="middle" dominant-baseline="central" font-size="12.5" fill="#39455a" font-family="'Segoe UI', 'Helvetica Neue', Helvetica, Arial, sans-serif">decision</text></g><g><rect x="279.3" y="464" width="73.4" height="22" rx="4" fill="#ffffff" opacity="0.95"/><text x="316" y="475" text-anchor="middle" dominant-baseline="central" font-size="12.5" fill="#39455a" font-family="'Segoe UI', 'Helvetica Neue', Helvetica, Arial, sans-serif">applicant</text></g><g><rect x="426.7" y="464" width="86.6" height="22" rx="4" fill="#ffffff" opacity="0.95"/><text x="470" y="475" text-anchor="middle" dominant-baseline="central" font-size="12.5" fill="#39455a" font-family="'Segoe UI', 'Helvetica Neue', Helvetica, Arial, sans-serif">application</text></g><g><rect x="673.4" y="464" width="93.19999999999999" height="22" rx="4" fill="#ffffff" opacity="0.95"/><text x="720" y="475" text-anchor="middle" dominant-baseline="central" font-size="12.5" fill="#39455a" font-family="'Segoe UI', 'Helvetica Neue', Helvetica, Arial, sans-serif">stall status</text></g><g filter="url(#sh)"><circle cx="120" cy="380" r="52" fill="#e6f5f1" stroke="#0f766e" stroke-width="2.4"/></g><text x="120" y="372" text-anchor="middle" dominant-baseline="central" font-size="14" font-weight="600" fill="#0c5f59" font-family="'Segoe UI', 'Helvetica Neue', Helvetica, Arial, sans-serif">from 2.1</text><text x="120" y="388" text-anchor="middle" dominant-baseline="central" font-size="14" font-weight="600" fill="#0c5f59" font-family="'Segoe UI', 'Helvetica Neue', Helvetica, Arial, sans-serif">Submit</text><g filter="url(#sh)"><circle cx="340" cy="380" r="58" fill="#e9f1fd" stroke="#2f6fd0" stroke-width="2.4"/></g><text x="340" y="364" text-anchor="middle" dominant-baseline="central" font-size="14" font-weight="600" fill="#15407f" font-family="'Segoe UI', 'Helvetica Neue', Helvetica, Arial, sans-serif">2.2.1</text><text x="340" y="380" text-anchor="middle" dominant-baseline="central" font-size="14" font-weight="600" fill="#15407f" font-family="'Segoe UI', 'Helvetica Neue', Helvetica, Arial, sans-serif">Check</text><text x="340" y="396" text-anchor="middle" dominant-baseline="central" font-size="14" font-weight="600" fill="#15407f" font-family="'Segoe UI', 'Helvetica Neue', Helvetica, Arial, sans-serif">Applicant</text><g filter="url(#sh)"><circle cx="610" cy="380" r="58" fill="#e9f1fd" stroke="#2f6fd0" stroke-width="2.4"/></g><text x="610" y="364" text-anchor="middle" dominant-baseline="central" font-size="14" font-weight="600" fill="#15407f" font-family="'Segoe UI', 'Helvetica Neue', Helvetica, Arial, sans-serif">2.2.2</text><text x="610" y="380" text-anchor="middle" dominant-baseline="central" font-size="14" font-weight="600" fill="#15407f" font-family="'Segoe UI', 'Helvetica Neue', Helvetica, Arial, sans-serif">Verify Stall</text><text x="610" y="396" text-anchor="middle" dominant-baseline="central" font-size="14" font-weight="600" fill="#15407f" font-family="'Segoe UI', 'Helvetica Neue', Helvetica, Arial, sans-serif">Availability</text><g filter="url(#sh)"><circle cx="880" cy="380" r="58" fill="#e9f1fd" stroke="#2f6fd0" stroke-width="2.4"/></g><text x="880" y="364" text-anchor="middle" dominant-baseline="central" font-size="14" font-weight="600" fill="#15407f" font-family="'Segoe UI', 'Helvetica Neue', Helvetica, Arial, sans-serif">2.2.3</text><text x="880" y="380" text-anchor="middle" dominant-baseline="central" font-size="14" font-weight="600" fill="#15407f" font-family="'Segoe UI', 'Helvetica Neue', Helvetica, Arial, sans-serif">Present to</text><text x="880" y="396" text-anchor="middle" dominant-baseline="central" font-size="14" font-weight="600" fill="#15407f" font-family="'Segoe UI', 'Helvetica Neue', Helvetica, Arial, sans-serif">Reviewer</text><g filter="url(#sh)"><circle cx="1150" cy="380" r="58" fill="#e9f1fd" stroke="#2f6fd0" stroke-width="2.4"/></g><text x="1150" y="364" text-anchor="middle" dominant-baseline="central" font-size="14" font-weight="600" fill="#15407f" font-family="'Segoe UI', 'Helvetica Neue', Helvetica, Arial, sans-serif">2.2.4</text><text x="1150" y="380" text-anchor="middle" dominant-baseline="central" font-size="14" font-weight="600" fill="#15407f" font-family="'Segoe UI', 'Helvetica Neue', Helvetica, Arial, sans-serif">Capture</text><text x="1150" y="396" text-anchor="middle" dominant-baseline="central" font-size="14" font-weight="600" fill="#15407f" font-family="'Segoe UI', 'Helvetica Neue', Helvetica, Arial, sans-serif">Decision</text><g filter="url(#sh)"><circle cx="1380" cy="380" r="52" fill="#e6f5f1" stroke="#0f766e" stroke-width="2.4"/></g><text x="1380" y="372" text-anchor="middle" dominant-baseline="central" font-size="14" font-weight="600" fill="#0c5f59" font-family="'Segoe UI', 'Helvetica Neue', Helvetica, Arial, sans-serif">to 2.3</text><text x="1380" y="388" text-anchor="middle" dominant-baseline="central" font-size="14" font-weight="600" fill="#0c5f59" font-family="'Segoe UI', 'Helvetica Neue', Helvetica, Arial, sans-serif">Decision</text><g filter="url(#sh)"><rect x="725" y="122" width="150" height="56" rx="5" fill="#f4f6f9" stroke="#52617a" stroke-width="2.1"/></g><text x="800" y="150" text-anchor="middle" dominant-baseline="central" font-size="15" font-weight="600" fill="#293445" font-family="'Segoe UI', 'Helvetica Neue', Helvetica, Arial, sans-serif">Contractor</text><g filter="url(#sh)"><rect x="930" y="122" width="140" height="56" rx="5" fill="#f4f6f9" stroke="#52617a" stroke-width="2.1"/></g><text x="1000" y="150" text-anchor="middle" dominant-baseline="central" font-size="15" font-weight="600" fill="#293445" font-family="'Segoe UI', 'Helvetica Neue', Helvetica, Arial, sans-serif">Admin</text><g><line x1="205" y1="540" x2="355" y2="540" stroke="#b06a12" stroke-width="2.4" stroke-linecap="round"/><line x1="205" y1="586" x2="355" y2="586" stroke="#b06a12" stroke-width="2.4" stroke-linecap="round"/><line x1="239" y1="540" x2="239" y2="586" stroke="#b06a12" stroke-width="2.2"/><text x="222" y="563" text-anchor="middle" dominant-baseline="central" font-size="13" font-weight="700" fill="#7a4810" font-family="'Segoe UI', 'Helvetica Neue', Helvetica, Arial, sans-serif">D1</text><text x="297" y="563" text-anchor="middle" dominant-baseline="central" font-size="13.5" font-weight="600" fill="#7a4810" font-family="'Segoe UI', 'Helvetica Neue', Helvetica, Arial, sans-serif">Accounts</text></g><g><line x1="410" y1="540" x2="570" y2="540" stroke="#b06a12" stroke-width="2.4" stroke-linecap="round"/><line x1="410" y1="586" x2="570" y2="586" stroke="#b06a12" stroke-width="2.4" stroke-linecap="round"/><line x1="444" y1="540" x2="444" y2="586" stroke="#b06a12" stroke-width="2.2"/><text x="427" y="563" text-anchor="middle" dominant-baseline="central" font-size="13" font-weight="700" fill="#7a4810" font-family="'Segoe UI', 'Helvetica Neue', Helvetica, Arial, sans-serif">D3</text><text x="507" y="563" text-anchor="middle" dominant-baseline="central" font-size="13.5" font-weight="600" fill="#7a4810" font-family="'Segoe UI', 'Helvetica Neue', Helvetica, Arial, sans-serif">Applications</text></g><g><line x1="770" y1="540" x2="910" y2="540" stroke="#b06a12" stroke-width="2.4" stroke-linecap="round"/><line x1="770" y1="586" x2="910" y2="586" stroke="#b06a12" stroke-width="2.4" stroke-linecap="round"/><line x1="804" y1="540" x2="804" y2="586" stroke="#b06a12" stroke-width="2.2"/><text x="787" y="563" text-anchor="middle" dominant-baseline="central" font-size="13" font-weight="700" fill="#7a4810" font-family="'Segoe UI', 'Helvetica Neue', Helvetica, Arial, sans-serif">D2</text><text x="857" y="563" text-anchor="middle" dominant-baseline="central" font-size="13.5" font-weight="600" fill="#7a4810" font-family="'Segoe UI', 'Helvetica Neue', Helvetica, Arial, sans-serif">Stalls</text></g>
</svg>