<svg viewBox="0 0 940 1440" xmlns="http://www.w3.org/2000/svg" font-family="'Segoe UI', 'Helvetica Neue', Helvetica, Arial, sans-serif">
  <defs>
    <filter id="sh" x="-20%" y="-20%" width="140%" height="140%"><feDropShadow dx="0" dy="1.6" stdDeviation="1.8" flood-color="#0f172a" flood-opacity="0.18"/></filter>
    <marker id="arr" markerWidth="11" markerHeight="11" refX="8.5" refY="4.5" orient="auto"><path d="M0,0 L9,4.5 L0,9 L2.6,4.5 Z" fill="#6a7686"/></marker>
    <marker id="arrS" markerWidth="11" markerHeight="11" refX="0.5" refY="4.5" orient="auto"><path d="M9,0 L0,4.5 L9,9 L6.4,4.5 Z" fill="#6a7686"/></marker>
    <marker id="mOne" markerWidth="18" markerHeight="16" refX="15" refY="8" orient="auto"><path d="M7,2 V14 M11,2 V14" stroke="#6a7686" stroke-width="1.7" fill="none"/></marker>
    <marker id="mMany" markerWidth="22" markerHeight="18" refX="19" refY="9" orient="auto"><circle cx="4" cy="9" r="3" fill="#fff" stroke="#6a7686" stroke-width="1.5"/><path d="M19,2 L10,9 L19,16" fill="none" stroke="#6a7686" stroke-width="1.7"/></marker>
  </defs>
  <rect x="0" y="0" width="940" height="1440" fill="#ffffff"/>
  <text x="40" y="48" font-size="22" font-weight="700" fill="#0f172a" font-family="'Segoe UI', 'Helvetica Neue', Helvetica, Arial, sans-serif">Process Flowchart — Shopper Wayfinding</text>
  <line x1="40" y1="64" x2="900" y2="64" stroke="#e2e8f0" stroke-width="2"/>
  <path d="M 430 108 L 430 156" fill="none" stroke="#6a7686" stroke-width="1.8" marker-end="url(#arr)"/><path d="M 430 204 L 430 248" fill="none" stroke="#6a7686" stroke-width="1.8" marker-end="url(#arr)"/><path d="M 430 296 L 430 348" fill="none" stroke="#6a7686" stroke-width="1.8" marker-end="url(#arr)"/><path d="M 430 396 L 430 452" fill="none" stroke="#6a7686" stroke-width="1.8" marker-end="url(#arr)"/><path d="M 430 500 L 430 560" fill="none" stroke="#6a7686" stroke-width="1.8" marker-end="url(#arr)"/><path d="M 430 640 L 430 716" fill="none" stroke="#6a7686" stroke-width="1.8" marker-end="url(#arr)"/><path d="M 430 766 L 430 826" fill="none" stroke="#6a7686" stroke-width="1.8" marker-end="url(#arr)"/><path d="M 430 906 L 430 972" fill="none" stroke="#6a7686" stroke-width="1.8" marker-end="url(#arr)"/><path d="M 430 1030 L 430 1086" fill="none" stroke="#6a7686" stroke-width="1.8" marker-end="url(#arr)"/><path d="M 430 1166 L 430 1226" fill="none" stroke="#6a7686" stroke-width="1.8" marker-end="url(#arr)"/><path d="M 430 1278 L 430 1328" fill="none" stroke="#6a7686" stroke-width="1.8" marker-end="url(#arr)"/><path d="M 352 600 L 182 600 Q 170 600 170 612 L 170 716" fill="none" stroke="#6a7686" stroke-width="1.8" marker-end="url(#arr)"/><path d="M 170 768 L 170 1114 Q 170 1126 182 1126 L 352 1126" fill="none" stroke="#6a7686" stroke-width="1.8" marker-end="url(#arr)"/><path d="M 508 866 L 708 866 Q 720 866 720 878 L 720 988 Q 720 1000 708 1000 L 488 1000" fill="none" stroke="#6a7686" stroke-width="1.8" marker-end="url(#arr)"/><path d="M 508 866 L 720 866" fill="none" stroke="#6a7686" stroke-width="1.8" marker-end="url(#arr)"/><path d="M 508 1126 L 548 1126 Q 560 1126 560 1114 L 560 1012 Q 560 1000 548 1000 L 488 1000" fill="none" stroke="#6a7686" stroke-width="1.8" marker-end="url(#arr)"/><g><rect x="437.1" y="569" width="33.8" height="22" rx="4" fill="#ffffff" opacity="0.95"/><text x="454" y="580" text-anchor="middle" dominant-baseline="central" font-size="12.5" fill="#39455a" font-family="'Segoe UI', 'Helvetica Neue', Helvetica, Arial, sans-serif">Yes</text></g><g><rect x="312.4" y="569" width="27.2" height="22" rx="4" fill="#ffffff" opacity="0.95"/><text x="326" y="580" text-anchor="middle" dominant-baseline="central" font-size="12.5" fill="#39455a" font-family="'Segoe UI', 'Helvetica Neue', Helvetica, Arial, sans-serif">No</text></g><g><rect x="437.1" y="835" width="33.8" height="22" rx="4" fill="#ffffff" opacity="0.95"/><text x="454" y="846" text-anchor="middle" dominant-baseline="central" font-size="12.5" fill="#39455a" font-family="'Segoe UI', 'Helvetica Neue', Helvetica, Arial, sans-serif">Yes</text></g><g><rect x="440.4" y="937" width="27.2" height="22" rx="4" fill="#ffffff" opacity="0.95"/><text x="454" y="948" text-anchor="middle" dominant-baseline="central" font-size="12.5" fill="#39455a" font-family="'Segoe UI', 'Helvetica Neue', Helvetica, Arial, sans-serif">No</text></g><g><rect x="437.1" y="1095" width="33.8" height="22" rx="4" fill="#ffffff" opacity="0.95"/><text x="454" y="1106" text-anchor="middle" dominant-baseline="central" font-size="12.5" fill="#39455a" font-family="'Segoe UI', 'Helvetica Neue', Helvetica, Arial, sans-serif">Yes</text></g><g><rect x="535.2" y="1095" width="119.6" height="22" rx="4" fill="#ffffff" opacity="0.95"/><text x="595" y="1106" text-anchor="middle" dominant-baseline="central" font-size="12.5" fill="#39455a" font-family="'Segoe UI', 'Helvetica Neue', Helvetica, Arial, sans-serif">No — keep moving</text></g><g filter="url(#sh)"><rect x="355" y="56" width="150" height="48" rx="24" fill="#e7f6ee" stroke="#1f9d57" stroke-width="2.2"/></g><text x="430" y="80" text-anchor="middle" dominant-baseline="central" font-size="15" font-weight="600" fill="#0f5132" font-family="'Segoe UI', 'Helvetica Neue', Helvetica, Arial, sans-serif">Start</text><g filter="url(#sh)"><rect x="300" y="156" width="260" height="48" rx="6" fill="#e9f1fd" stroke="#2f6fd0" stroke-width="2.2"/></g><text x="430" y="180" text-anchor="middle" dominant-baseline="central" font-size="13.5" font-weight="600" fill="#15407f" font-family="'Segoe UI', 'Helvetica Neue', Helvetica, Arial, sans-serif">Open 360° Tour</text><g filter="url(#sh)"><rect x="280" y="248" width="300" height="48" rx="6" fill="#e9f1fd" stroke="#2f6fd0" stroke-width="2.2"/></g><text x="430" y="272" text-anchor="middle" dominant-baseline="central" font-size="13.5" font-weight="600" fill="#15407f" font-family="'Segoe UI', 'Helvetica Neue', Helvetica, Arial, sans-serif">Search / select destination</text><g filter="url(#sh)"><rect x="270" y="342" width="320" height="60" rx="6" fill="#e9f1fd" stroke="#2f6fd0" stroke-width="2.2"/></g><text x="430" y="363.75" text-anchor="middle" dominant-baseline="central" font-size="13.5" font-weight="600" fill="#15407f" font-family="'Segoe UI', 'Helvetica Neue', Helvetica, Arial, sans-serif">Compute shortest route</text><text x="430" y="380.25" text-anchor="middle" dominant-baseline="central" font-size="13.5" font-weight="600" fill="#15407f" font-family="'Segoe UI', 'Helvetica Neue', Helvetica, Arial, sans-serif">(Dijkstra over aisle graph)</text><g filter="url(#sh)"><rect x="280" y="452" width="300" height="48" rx="6" fill="#e9f1fd" stroke="#2f6fd0" stroke-width="2.2"/></g><text x="430" y="476" text-anchor="middle" dominant-baseline="central" font-size="13.5" font-weight="600" fill="#15407f" font-family="'Segoe UI', 'Helvetica Neue', Helvetica, Arial, sans-serif">Show route on panorama + map</text><g filter="url(#sh)"><polygon points="430,558 525,600 430,642 335,600" fill="#fdf3da" stroke="#d18a16" stroke-width="2.2"/></g><text x="430" y="592.25" text-anchor="middle" dominant-baseline="central" font-size="13" font-weight="600" fill="#7c4a03" font-family="'Segoe UI', 'Helvetica Neue', Helvetica, Arial, sans-serif">Open AR</text><text x="430" y="607.75" text-anchor="middle" dominant-baseline="central" font-size="13" font-weight="600" fill="#7c4a03" font-family="'Segoe UI', 'Helvetica Neue', Helvetica, Arial, sans-serif">view?</text><g filter="url(#sh)"><rect x="300" y="718" width="260" height="48" rx="6" fill="#e9f1fd" stroke="#2f6fd0" stroke-width="2.2"/></g><text x="430" y="742" text-anchor="middle" dominant-baseline="central" font-size="13.5" font-weight="600" fill="#15407f" font-family="'Segoe UI', 'Helvetica Neue', Helvetica, Arial, sans-serif">Open AR Finder (camera)</text><g filter="url(#sh)"><polygon points="430,824 520,866 430,908 340,866" fill="#fdf3da" stroke="#d18a16" stroke-width="2.2"/></g><text x="430" y="858.25" text-anchor="middle" dominant-baseline="central" font-size="13" font-weight="600" fill="#7c4a03" font-family="'Segoe UI', 'Helvetica Neue', Helvetica, Arial, sans-serif">Scan QR</text><text x="430" y="873.75" text-anchor="middle" dominant-baseline="central" font-size="13" font-weight="600" fill="#7c4a03" font-family="'Segoe UI', 'Helvetica Neue', Helvetica, Arial, sans-serif">code?</text><g filter="url(#sh)"><rect x="290" y="971" width="280" height="58" rx="6" fill="#e9f1fd" stroke="#2f6fd0" stroke-width="2.2"/></g><text x="430" y="991.75" text-anchor="middle" dominant-baseline="central" font-size="13.5" font-weight="600" fill="#15407f" font-family="'Segoe UI', 'Helvetica Neue', Helvetica, Arial, sans-serif">Track position</text><text x="430" y="1008.25" text-anchor="middle" dominant-baseline="central" font-size="13.5" font-weight="600" fill="#15407f" font-family="'Segoe UI', 'Helvetica Neue', Helvetica, Arial, sans-serif">(steps + compass)</text><g filter="url(#sh)"><polygon points="430,1084 525,1126 430,1168 335,1126" fill="#fdf3da" stroke="#d18a16" stroke-width="2.2"/></g><text x="430" y="1118.25" text-anchor="middle" dominant-baseline="central" font-size="13" font-weight="600" fill="#7c4a03" font-family="'Segoe UI', 'Helvetica Neue', Helvetica, Arial, sans-serif">Arrived at</text><text x="430" y="1133.75" text-anchor="middle" dominant-baseline="central" font-size="13" font-weight="600" fill="#7c4a03" font-family="'Segoe UI', 'Helvetica Neue', Helvetica, Arial, sans-serif">stall?</text><g filter="url(#sh)"><rect x="280" y="1223" width="300" height="58" rx="6" fill="#e9f1fd" stroke="#2f6fd0" stroke-width="2.2"/></g><text x="430" y="1243.75" text-anchor="middle" dominant-baseline="central" font-size="13.5" font-weight="600" fill="#15407f" font-family="'Segoe UI', 'Helvetica Neue', Helvetica, Arial, sans-serif">Show stall info</text><text x="430" y="1260.25" text-anchor="middle" dominant-baseline="central" font-size="13.5" font-weight="600" fill="#15407f" font-family="'Segoe UI', 'Helvetica Neue', Helvetica, Arial, sans-serif">(products · hours · vendor)</text><g filter="url(#sh)"><rect x="355" y="1332" width="150" height="48" rx="24" fill="#e7f6ee" stroke="#1f9d57" stroke-width="2.2"/></g><text x="430" y="1356" text-anchor="middle" dominant-baseline="central" font-size="15" font-weight="600" fill="#0f5132" font-family="'Segoe UI', 'Helvetica Neue', Helvetica, Arial, sans-serif">End</text><g filter="url(#sh)"><rect x="75" y="713" width="190" height="58" rx="6" fill="#e9f1fd" stroke="#2f6fd0" stroke-width="2.2"/></g><text x="170" y="733.75" text-anchor="middle" dominant-baseline="central" font-size="13.5" font-weight="600" fill="#15407f" font-family="'Segoe UI', 'Helvetica Neue', Helvetica, Arial, sans-serif">Follow panorama</text><text x="170" y="750.25" text-anchor="middle" dominant-baseline="central" font-size="13.5" font-weight="600" fill="#15407f" font-family="'Segoe UI', 'Helvetica Neue', Helvetica, Arial, sans-serif">arrows</text><g filter="url(#sh)"><rect x="600" y="837" width="240" height="58" rx="6" fill="#e9f1fd" stroke="#2f6fd0" stroke-width="2.2"/></g><text x="720" y="857.75" text-anchor="middle" dominant-baseline="central" font-size="13.5" font-weight="600" fill="#15407f" font-family="'Segoe UI', 'Helvetica Neue', Helvetica, Arial, sans-serif">Scan QR · recognize</text><text x="720" y="874.25" text-anchor="middle" dominant-baseline="central" font-size="13.5" font-weight="600" fill="#15407f" font-family="'Segoe UI', 'Helvetica Neue', Helvetica, Arial, sans-serif">· set position</text>
</svg>