<svg xmlns="http://www.w3.org/2000/svg" viewBox="0 0 2305 1824">
  <rect x="0" y="0" width="2305" height="1824" fill="#f8fafc" />
  <rect x="150" y="100" width="1950" height="1650" fill="#ffffff" stroke="#e2e8f0" stroke-width="16" rx="24" />
  <text x="1152" y="160" text-anchor="middle" fill="#94a3b8" font-size="42" font-weight="800" letter-spacing="12" font-family="sans-serif">NORTH PATHWAY</text>
  <text x="1152" y="870" text-anchor="middle" fill="#94a3b8" font-size="42" font-weight="800" letter-spacing="12" font-family="sans-serif">CENTRAL PATHWAY</text>
  <text x="1152" y="1690" text-anchor="middle" fill="#94a3b8" font-size="42" font-weight="800" letter-spacing="12" font-family="sans-serif">MAIN ENTRANCE / EXIT</text>
  <g transform="translate(317,432)">
    <rect x="-78" y="-22.5" width="156" height="45" fill="#fee2e2" stroke="#fca5a5" stroke-width="4" rx="8" />
  </g>
  <g transform="translate(317,481)">
    <rect x="-78" y="-22" width="156" height="44" fill="#fee2e2" stroke="#fca5a5" stroke-width="4" rx="8" />
  </g>
  <g transform="translate(317,529)">
    <rect x="-78" y="-22.5" width="156" height="45" fill="#fee2e2" stroke="#fca5a5" stroke-width="4" rx="8" />
  </g>
  <g transform="translate(317,578)">
    <rect x="-78" y="-22" width="156" height="44" fill="#fee2e2" stroke="#fca5a5" stroke-width="4" rx="8" />
    <text x="0" y="9" text-anchor="middle" fill="#ef4444" font-size="20" font-weight="bold" font-family="sans-serif">5</text>
  </g>
  <g transform="translate(317,626)">
    <rect x="-78" y="-22.5" width="156" height="45" fill="#fee2e2" stroke="#fca5a5" stroke-width="4" rx="8" />
    <text x="0" y="9" text-anchor="middle" fill="#ef4444" font-size="28" font-weight="bold" font-family="sans-serif">4</text>
  </g>
  <g transform="translate(317,675)">
    <rect x="-78" y="-22" width="156" height="44" fill="#fee2e2" stroke="#fca5a5" stroke-width="4" rx="8" />
    <text x="0" y="9" text-anchor="middle" fill="#ef4444" font-size="20" font-weight="bold" font-family="sans-serif">3</text>
  </g>
  <g transform="translate(317,723)">
    <rect x="-78" y="-22.5" width="156" height="45" fill="#fee2e2" stroke="#fca5a5" stroke-width="4" rx="8" />
    <text x="0" y="9" text-anchor="middle" fill="#ef4444" font-size="28" font-weight="bold" font-family="sans-serif">2</text>
  </g>
  <g transform="translate(317,772)">
    <rect x="-78" y="-32" width="156" height="64" fill="#fee2e2" stroke="#fca5a5" stroke-width="4" rx="8" />
    <text x="0" y="9" text-anchor="middle" fill="#ef4444" font-size="28" font-weight="bold" font-family="sans-serif">1</text>
  </g>
  <g transform="translate(467,242)">
    <rect x="-78" y="-28" width="156" height="56" fill="#dbeafe" stroke="#93c5fd" stroke-width="4" rx="8" />
    <text x="0" y="9" text-anchor="middle" fill="#3b82f6" font-size="28" font-weight="bold" font-family="sans-serif">20</text>
  </g>
  <g transform="translate(467,302)">
    <rect x="-78" y="-28" width="156" height="56" fill="#dbeafe" stroke="#93c5fd" stroke-width="4" rx="8" />
    <text x="0" y="9" text-anchor="middle" fill="#3b82f6" font-size="28" font-weight="bold" font-family="sans-serif">19</text>
  </g>
  <g transform="translate(467,362)">
    <rect x="-78" y="-28" width="156" height="56" fill="#dbeafe" stroke="#93c5fd" stroke-width="4" rx="8" />
    <text x="0" y="9" text-anchor="middle" fill="#3b82f6" font-size="28" font-weight="bold" font-family="sans-serif">18</text>
  </g>
  <g transform="translate(467,422)">
    <rect x="-78" y="-28" width="156" height="56" fill="#dbeafe" stroke="#93c5fd" stroke-width="4" rx="8" />
    <text x="0" y="9" text-anchor="middle" fill="#3b82f6" font-size="28" font-weight="bold" font-family="sans-serif">17</text>
  </g>
  <g transform="translate(467,482)">
    <rect x="-78" y="-28" width="156" height="56" fill="#dbeafe" stroke="#93c5fd" stroke-width="4" rx="8" />
    <text x="0" y="9" text-anchor="middle" fill="#3b82f6" font-size="28" font-weight="bold" font-family="sans-serif">16</text>
  </g>
  <g transform="translate(467,542)">
    <rect x="-78" y="-28" width="156" height="56" fill="#dbeafe" stroke="#93c5fd" stroke-width="4" rx="8" />
    <text x="0" y="9" text-anchor="middle" fill="#3b82f6" font-size="28" font-weight="bold" font-family="sans-serif">15</text>
  </g>
  <g transform="translate(467,602)">
    <rect x="-78" y="-28" width="156" height="56" fill="#dbeafe" stroke="#93c5fd" stroke-width="4" rx="8" />
    <text x="0" y="9" text-anchor="middle" fill="#3b82f6" font-size="28" font-weight="bold" font-family="sans-serif">14</text>
  </g>
  <g transform="translate(467,662)">
    <rect x="-78" y="-28" width="156" height="56" fill="#fee2e2" stroke="#fca5a5" stroke-width="4" rx="8" />
    <text x="0" y="9" text-anchor="middle" fill="#ef4444" font-size="28" font-weight="bold" font-family="sans-serif">13</text>
  </g>
  <g transform="translate(467,722)">
    <rect x="-78" y="-28" width="156" height="56" fill="#fee2e2" stroke="#fca5a5" stroke-width="4" rx="8" />
    <text x="0" y="9" text-anchor="middle" fill="#ef4444" font-size="28" font-weight="bold" font-family="sans-serif">12</text>
  </g>
  <g transform="translate(467,782)">
    <rect x="-78" y="-32" width="156" height="64" fill="#dbeafe" stroke="#93c5fd" stroke-width="4" rx="8" />
    <text x="0" y="9" text-anchor="middle" fill="#3b82f6" font-size="28" font-weight="bold" font-family="sans-serif">11</text>
  </g>
  <g transform="translate(817,242)">
    <rect x="-78" y="-28" width="156" height="56" fill="#dbeafe" stroke="#93c5fd" stroke-width="4" rx="8" />
    <text x="0" y="9" text-anchor="middle" fill="#3b82f6" font-size="28" font-weight="bold" font-family="sans-serif">30</text>
  </g>
  <g transform="translate(817,302)">
    <rect x="-78" y="-28" width="156" height="56" fill="#dbeafe" stroke="#93c5fd" stroke-width="4" rx="8" />
    <text x="0" y="9" text-anchor="middle" fill="#3b82f6" font-size="28" font-weight="bold" font-family="sans-serif">29</text>
  </g>
  <g transform="translate(817,362)">
    <rect x="-78" y="-28" width="156" height="56" fill="#dbeafe" stroke="#93c5fd" stroke-width="4" rx="8" />
    <text x="0" y="9" text-anchor="middle" fill="#3b82f6" font-size="28" font-weight="bold" font-family="sans-serif">28</text>
  </g>
  <g transform="translate(817,422)">
    <rect x="-78" y="-28" width="156" height="56" fill="#dbeafe" stroke="#93c5fd" stroke-width="4" rx="8" />
    <text x="0" y="9" text-anchor="middle" fill="#3b82f6" font-size="28" font-weight="bold" font-family="sans-serif">27</text>
  </g>
  <g transform="translate(817,482)">
    <rect x="-78" y="-28" width="156" height="56" fill="#dbeafe" stroke="#93c5fd" stroke-width="4" rx="8" />
    <text x="0" y="9" text-anchor="middle" fill="#3b82f6" font-size="28" font-weight="bold" font-family="sans-serif">26</text>
  </g>
  <g transform="translate(817,542)">
    <rect x="-78" y="-28" width="156" height="56" fill="#dbeafe" stroke="#93c5fd" stroke-width="4" rx="8" />
    <text x="0" y="9" text-anchor="middle" fill="#3b82f6" font-size="28" font-weight="bold" font-family="sans-serif">25</text>
  </g>
  <g transform="translate(817,602)">
    <rect x="-78" y="-28" width="156" height="56" fill="#dbeafe" stroke="#93c5fd" stroke-width="4" rx="8" />
    <text x="0" y="9" text-anchor="middle" fill="#3b82f6" font-size="28" font-weight="bold" font-family="sans-serif">24</text>
  </g>
  <g transform="translate(817,662)">
    <rect x="-78" y="-28" width="156" height="56" fill="#dbeafe" stroke="#93c5fd" stroke-width="4" rx="8" />
    <text x="0" y="9" text-anchor="middle" fill="#3b82f6" font-size="28" font-weight="bold" font-family="sans-serif">23</text>
  </g>
  <g transform="translate(817,722)">
    <rect x="-78" y="-28" width="156" height="56" fill="#dbeafe" stroke="#93c5fd" stroke-width="4" rx="8" />
    <text x="0" y="9" text-anchor="middle" fill="#3b82f6" font-size="28" font-weight="bold" font-family="sans-serif">22</text>
  </g>
  <g transform="translate(817,782)">
    <rect x="-78" y="-32" width="156" height="64" fill="#dbeafe" stroke="#93c5fd" stroke-width="4" rx="8" />
    <text x="0" y="9" text-anchor="middle" fill="#3b82f6" font-size="28" font-weight="bold" font-family="sans-serif">21</text>
  </g>
  <g transform="translate(967,242)">
    <rect x="-78" y="-28" width="156" height="56" fill="#dbeafe" stroke="#93c5fd" stroke-width="4" rx="8" />
    <text x="0" y="9" text-anchor="middle" fill="#3b82f6" font-size="28" font-weight="bold" font-family="sans-serif">40</text>
  </g>
  <g transform="translate(967,302)">
    <rect x="-78" y="-28" width="156" height="56" fill="#dbeafe" stroke="#93c5fd" stroke-width="4" rx="8" />
    <text x="0" y="9" text-anchor="middle" fill="#3b82f6" font-size="28" font-weight="bold" font-family="sans-serif">39</text>
  </g>
  <g transform="translate(967,362)">
    <rect x="-78" y="-28" width="156" height="56" fill="#dbeafe" stroke="#93c5fd" stroke-width="4" rx="8" />
    <text x="0" y="9" text-anchor="middle" fill="#3b82f6" font-size="28" font-weight="bold" font-family="sans-serif">38</text>
  </g>
  <g transform="translate(967,422)">
    <rect x="-78" y="-28" width="156" height="56" fill="#dbeafe" stroke="#93c5fd" stroke-width="4" rx="8" />
    <text x="0" y="9" text-anchor="middle" fill="#3b82f6" font-size="28" font-weight="bold" font-family="sans-serif">37</text>
  </g>
  <g transform="translate(967,482)">
    <rect x="-78" y="-28" width="156" height="56" fill="#dbeafe" stroke="#93c5fd" stroke-width="4" rx="8" />
    <text x="0" y="9" text-anchor="middle" fill="#3b82f6" font-size="28" font-weight="bold" font-family="sans-serif">36</text>
  </g>
  <g transform="translate(967,542)">
    <rect x="-78" y="-28" width="156" height="56" fill="#dbeafe" stroke="#93c5fd" stroke-width="4" rx="8" />
    <text x="0" y="9" text-anchor="middle" fill="#3b82f6" font-size="28" font-weight="bold" font-family="sans-serif">35</text>
  </g>
  <g transform="translate(967,602)">
    <rect x="-78" y="-28" width="156" height="56" fill="#dbeafe" stroke="#93c5fd" stroke-width="4" rx="8" />
    <text x="0" y="9" text-anchor="middle" fill="#3b82f6" font-size="28" font-weight="bold" font-family="sans-serif">34</text>
  </g>
  <g transform="translate(967,662)">
    <rect x="-78" y="-28" width="156" height="56" fill="#dbeafe" stroke="#93c5fd" stroke-width="4" rx="8" />
    <text x="0" y="9" text-anchor="middle" fill="#3b82f6" font-size="28" font-weight="bold" font-family="sans-serif">33</text>
  </g>
  <g transform="translate(967,722)">
    <rect x="-78" y="-28" width="156" height="56" fill="#dbeafe" stroke="#93c5fd" stroke-width="4" rx="8" />
    <text x="0" y="9" text-anchor="middle" fill="#3b82f6" font-size="28" font-weight="bold" font-family="sans-serif">32</text>
  </g>
  <g transform="translate(967,782)">
    <rect x="-78" y="-32" width="156" height="64" fill="#dbeafe" stroke="#93c5fd" stroke-width="4" rx="8" />
    <text x="0" y="9" text-anchor="middle" fill="#3b82f6" font-size="28" font-weight="bold" font-family="sans-serif">31</text>
  </g>
  <g transform="translate(1317,242)">
    <rect x="-78" y="-28" width="156" height="56" fill="#dbeafe" stroke="#93c5fd" stroke-width="4" rx="8" />
    <text x="0" y="9" text-anchor="middle" fill="#3b82f6" font-size="28" font-weight="bold" font-family="sans-serif">50</text>
  </g>
  <g transform="translate(1317,302)">
    <rect x="-78" y="-28" width="156" height="56" fill="#dbeafe" stroke="#93c5fd" stroke-width="4" rx="8" />
    <text x="0" y="9" text-anchor="middle" fill="#3b82f6" font-size="28" font-weight="bold" font-family="sans-serif">49</text>
  </g>
  <g transform="translate(1317,362)">
    <rect x="-78" y="-28" width="156" height="56" fill="#dbeafe" stroke="#93c5fd" stroke-width="4" rx="8" />
    <text x="0" y="9" text-anchor="middle" fill="#3b82f6" font-size="28" font-weight="bold" font-family="sans-serif">48</text>
  </g>
  <g transform="translate(1317,422)">
    <rect x="-78" y="-28" width="156" height="56" fill="#dbeafe" stroke="#93c5fd" stroke-width="4" rx="8" />
    <text x="0" y="9" text-anchor="middle" fill="#3b82f6" font-size="28" font-weight="bold" font-family="sans-serif">47</text>
  </g>
  <g transform="translate(1317,482)">
    <rect x="-78" y="-28" width="156" height="56" fill="#dbeafe" stroke="#93c5fd" stroke-width="4" rx="8" />
    <text x="0" y="9" text-anchor="middle" fill="#3b82f6" font-size="28" font-weight="bold" font-family="sans-serif">46</text>
  </g>
  <g transform="translate(1317,542)">
    <rect x="-78" y="-28" width="156" height="56" fill="#dbeafe" stroke="#93c5fd" stroke-width="4" rx="8" />
    <text x="0" y="9" text-anchor="middle" fill="#3b82f6" font-size="28" font-weight="bold" font-family="sans-serif">45</text>
  </g>
  <g transform="translate(1317,602)">
    <rect x="-78" y="-28" width="156" height="56" fill="#dbeafe" stroke="#93c5fd" stroke-width="4" rx="8" />
    <text x="0" y="9" text-anchor="middle" fill="#3b82f6" font-size="28" font-weight="bold" font-family="sans-serif">44</text>
  </g>
  <g transform="translate(1317,662)">
    <rect x="-78" y="-28" width="156" height="56" fill="#dbeafe" stroke="#93c5fd" stroke-width="4" rx="8" />
    <text x="0" y="9" text-anchor="middle" fill="#3b82f6" font-size="28" font-weight="bold" font-family="sans-serif">43</text>
  </g>
  <g transform="translate(1317,722)">
    <rect x="-78" y="-28" width="156" height="56" fill="#dbeafe" stroke="#93c5fd" stroke-width="4" rx="8" />
    <text x="0" y="9" text-anchor="middle" fill="#3b82f6" font-size="28" font-weight="bold" font-family="sans-serif">42</text>
  </g>
  <g transform="translate(1317,782)">
    <rect x="-78" y="-32" width="156" height="64" fill="#dbeafe" stroke="#93c5fd" stroke-width="4" rx="8" />
    <text x="0" y="9" text-anchor="middle" fill="#3b82f6" font-size="28" font-weight="bold" font-family="sans-serif">41</text>
  </g>
  <g transform="translate(1467,242)">
    <rect x="-78" y="-28" width="156" height="56" fill="#dbeafe" stroke="#93c5fd" stroke-width="4" rx="8" />
    <text x="0" y="9" text-anchor="middle" fill="#3b82f6" font-size="28" font-weight="bold" font-family="sans-serif">60</text>
  </g>
  <g transform="translate(1467,302)">
    <rect x="-78" y="-28" width="156" height="56" fill="#dbeafe" stroke="#93c5fd" stroke-width="4" rx="8" />
    <text x="0" y="9" text-anchor="middle" fill="#3b82f6" font-size="28" font-weight="bold" font-family="sans-serif">59</text>
  </g>
  <g transform="translate(1467,362)">
    <rect x="-78" y="-28" width="156" height="56" fill="#dbeafe" stroke="#93c5fd" stroke-width="4" rx="8" />
    <text x="0" y="9" text-anchor="middle" fill="#3b82f6" font-size="28" font-weight="bold" font-family="sans-serif">58</text>
  </g>
  <g transform="translate(1467,422)">
    <rect x="-78" y="-28" width="156" height="56" fill="#dbeafe" stroke="#93c5fd" stroke-width="4" rx="8" />
    <text x="0" y="9" text-anchor="middle" fill="#3b82f6" font-size="28" font-weight="bold" font-family="sans-serif">57</text>
  </g>
  <g transform="translate(1467,482)">
    <rect x="-78" y="-28" width="156" height="56" fill="#fee2e2" stroke="#fca5a5" stroke-width="4" rx="8" />
    <text x="0" y="9" text-anchor="middle" fill="#ef4444" font-size="28" font-weight="bold" font-family="sans-serif">56</text>
  </g>
  <g transform="translate(1467,542)">
    <rect x="-78" y="-28" width="156" height="56" fill="#fee2e2" stroke="#fca5a5" stroke-width="4" rx="8" />
    <text x="0" y="9" text-anchor="middle" fill="#ef4444" font-size="28" font-weight="bold" font-family="sans-serif">55</text>
  </g>
  <g transform="translate(1467,602)">
    <rect x="-78" y="-28" width="156" height="56" fill="#fee2e2" stroke="#fca5a5" stroke-width="4" rx="8" />
    <text x="0" y="9" text-anchor="middle" fill="#ef4444" font-size="28" font-weight="bold" font-family="sans-serif">54</text>
  </g>
  <g transform="translate(1467,662)">
    <rect x="-78" y="-28" width="156" height="56" fill="#fee2e2" stroke="#fca5a5" stroke-width="4" rx="8" />
    <text x="0" y="9" text-anchor="middle" fill="#ef4444" font-size="28" font-weight="bold" font-family="sans-serif">53</text>
  </g>
  <g transform="translate(1467,722)">
    <rect x="-78" y="-28" width="156" height="56" fill="#fee2e2" stroke="#fca5a5" stroke-width="4" rx="8" />
    <text x="0" y="9" text-anchor="middle" fill="#ef4444" font-size="28" font-weight="bold" font-family="sans-serif">52</text>
  </g>
  <g transform="translate(1467,782)">
    <rect x="-78" y="-32" width="156" height="64" fill="#fee2e2" stroke="#fca5a5" stroke-width="4" rx="8" />
    <text x="0" y="9" text-anchor="middle" fill="#ef4444" font-size="28" font-weight="bold" font-family="sans-serif">51</text>
  </g>
  <g transform="translate(1812,242)">
    <rect x="-78" y="-28" width="156" height="56" fill="#dbeafe" stroke="#93c5fd" stroke-width="4" rx="8" />
    <text x="0" y="9" text-anchor="middle" fill="#3b82f6" font-size="28" font-weight="bold" font-family="sans-serif">70</text>
  </g>
  <g transform="translate(1812,302)">
    <rect x="-78" y="-28" width="156" height="56" fill="#dbeafe" stroke="#93c5fd" stroke-width="4" rx="8" />
    <text x="0" y="9" text-anchor="middle" fill="#3b82f6" font-size="28" font-weight="bold" font-family="sans-serif">69</text>
  </g>
  <g transform="translate(1812,362)">
    <rect x="-78" y="-28" width="156" height="56" fill="#dbeafe" stroke="#93c5fd" stroke-width="4" rx="8" />
    <text x="0" y="9" text-anchor="middle" fill="#3b82f6" font-size="28" font-weight="bold" font-family="sans-serif">68</text>
  </g>
  <g transform="translate(1812,422)">
    <rect x="-78" y="-28" width="156" height="56" fill="#dbeafe" stroke="#93c5fd" stroke-width="4" rx="8" />
    <text x="0" y="9" text-anchor="middle" fill="#3b82f6" font-size="28" font-weight="bold" font-family="sans-serif">67</text>
  </g>
  <g transform="translate(1812,482)">
    <rect x="-78" y="-28" width="156" height="56" fill="#dbeafe" stroke="#93c5fd" stroke-width="4" rx="8" />
    <text x="0" y="9" text-anchor="middle" fill="#3b82f6" font-size="28" font-weight="bold" font-family="sans-serif">66</text>
  </g>
  <g transform="translate(1812,542)">
    <rect x="-78" y="-28" width="156" height="56" fill="#dbeafe" stroke="#93c5fd" stroke-width="4" rx="8" />
    <text x="0" y="9" text-anchor="middle" fill="#3b82f6" font-size="28" font-weight="bold" font-family="sans-serif">65</text>
  </g>
  <g transform="translate(1812,602)">
    <rect x="-78" y="-28" width="156" height="56" fill="#dbeafe" stroke="#93c5fd" stroke-width="4" rx="8" />
    <text x="0" y="9" text-anchor="middle" fill="#3b82f6" font-size="28" font-weight="bold" font-family="sans-serif">64</text>
  </g>
  <g transform="translate(1812,662)">
    <rect x="-78" y="-28" width="156" height="56" fill="#dbeafe" stroke="#93c5fd" stroke-width="4" rx="8" />
    <text x="0" y="9" text-anchor="middle" fill="#3b82f6" font-size="28" font-weight="bold" font-family="sans-serif">63</text>
  </g>
  <g transform="translate(1812,722)">
    <rect x="-78" y="-28" width="156" height="56" fill="#dbeafe" stroke="#93c5fd" stroke-width="4" rx="8" />
    <text x="0" y="9" text-anchor="middle" fill="#3b82f6" font-size="28" font-weight="bold" font-family="sans-serif">62</text>
  </g>
  <g transform="translate(1812,782)">
    <rect x="-78" y="-32" width="156" height="64" fill="#dbeafe" stroke="#93c5fd" stroke-width="4" rx="8" />
    <text x="0" y="9" text-anchor="middle" fill="#3b82f6" font-size="28" font-weight="bold" font-family="sans-serif">61</text>
  </g>
  <g transform="translate(1962,542)">
    <rect x="-78" y="-8" width="156" height="16" fill="#dbeafe" stroke="#93c5fd" stroke-width="4" rx="8" />
  </g>
  <g transform="translate(1962,562)">
    <rect x="-78" y="-8.5" width="156" height="17" fill="#dbeafe" stroke="#93c5fd" stroke-width="4" rx="8" />
  </g>
  <g transform="translate(1962,583)">
    <rect x="-78" y="-10" width="156" height="20" fill="#dbeafe" stroke="#93c5fd" stroke-width="4" rx="8" />
  </g>
  <g transform="translate(1962,607)">
    <rect x="-78" y="-8" width="156" height="16" fill="#dbeafe" stroke="#93c5fd" stroke-width="4" rx="8" />
  </g>
  <g transform="translate(1962,627)">
    <rect x="-78" y="-10.5" width="156" height="21" fill="#dbeafe" stroke="#93c5fd" stroke-width="4" rx="8" />
  </g>
  <g transform="translate(1962,652)">
    <rect x="-78" y="-22.5" width="156" height="45" fill="#dbeafe" stroke="#93c5fd" stroke-width="4" rx="8" />
    <text x="0" y="9" text-anchor="middle" fill="#3b82f6" font-size="28" font-weight="bold" font-family="sans-serif">75</text>
  </g>
  <g transform="translate(1962,701)">
    <rect x="-78" y="-14" width="156" height="28" fill="#dbeafe" stroke="#93c5fd" stroke-width="4" rx="8" />
    <text x="0" y="5" text-anchor="middle" fill="#3b82f6" font-size="16" font-weight="bold" font-family="sans-serif">74</text>
  </g>
  <g transform="translate(1962,733)">
    <rect x="-78" y="-10.5" width="156" height="21" fill="#dbeafe" stroke="#93c5fd" stroke-width="4" rx="8" />
    <text x="0" y="5" text-anchor="middle" fill="#3b82f6" font-size="16" font-weight="bold" font-family="sans-serif">73</text>
  </g>
  <g transform="translate(1962,758)">
    <rect x="-78" y="-10" width="156" height="20" fill="#dbeafe" stroke="#93c5fd" stroke-width="4" rx="8" />
    <text x="0" y="5" text-anchor="middle" fill="#3b82f6" font-size="16" font-weight="bold" font-family="sans-serif">72</text>
  </g>
  <g transform="translate(1962,782)">
    <rect x="-78" y="-32" width="156" height="64" fill="#dbeafe" stroke="#93c5fd" stroke-width="4" rx="8" />
    <text x="0" y="9" text-anchor="middle" fill="#3b82f6" font-size="28" font-weight="bold" font-family="sans-serif">71</text>
  </g>
  <g transform="translate(317,912)">
    <rect x="-78" y="-28" width="156" height="56" fill="#fee2e2" stroke="#fca5a5" stroke-width="4" rx="8" />
    <text x="0" y="9" text-anchor="middle" fill="#ef4444" font-size="28" font-weight="bold" font-family="sans-serif">12</text>
  </g>
  <g transform="translate(317,972)">
    <rect x="-78" y="-28" width="156" height="56" fill="#fee2e2" stroke="#fca5a5" stroke-width="4" rx="8" />
    <text x="0" y="9" text-anchor="middle" fill="#ef4444" font-size="28" font-weight="bold" font-family="sans-serif">11</text>
  </g>
  <g transform="translate(317,1032)">
    <rect x="-78" y="-28" width="156" height="56" fill="#fee2e2" stroke="#fca5a5" stroke-width="4" rx="8" />
    <text x="0" y="9" text-anchor="middle" fill="#ef4444" font-size="28" font-weight="bold" font-family="sans-serif">10</text>
  </g>
  <g transform="translate(317,1092)">
    <rect x="-78" y="-28" width="156" height="56" fill="#fee2e2" stroke="#fca5a5" stroke-width="4" rx="8" />
    <text x="0" y="9" text-anchor="middle" fill="#ef4444" font-size="28" font-weight="bold" font-family="sans-serif">9</text>
  </g>
  <g transform="translate(317,1152)">
    <rect x="-78" y="-28" width="156" height="56" fill="#fee2e2" stroke="#fca5a5" stroke-width="4" rx="8" />
    <text x="0" y="9" text-anchor="middle" fill="#ef4444" font-size="28" font-weight="bold" font-family="sans-serif">8</text>
  </g>
  <g transform="translate(317,1212)">
    <rect x="-78" y="-28" width="156" height="56" fill="#fee2e2" stroke="#fca5a5" stroke-width="4" rx="8" />
    <text x="0" y="9" text-anchor="middle" fill="#ef4444" font-size="28" font-weight="bold" font-family="sans-serif">7</text>
  </g>
  <g transform="translate(317,1272)">
    <rect x="-78" y="-28" width="156" height="56" fill="#fee2e2" stroke="#fca5a5" stroke-width="4" rx="8" />
    <text x="0" y="9" text-anchor="middle" fill="#ef4444" font-size="28" font-weight="bold" font-family="sans-serif">6</text>
  </g>
  <g transform="translate(317,1332)">
    <rect x="-78" y="-28" width="156" height="56" fill="#fee2e2" stroke="#fca5a5" stroke-width="4" rx="8" />
    <text x="0" y="9" text-anchor="middle" fill="#ef4444" font-size="28" font-weight="bold" font-family="sans-serif">5</text>
  </g>
  <g transform="translate(317,1392)">
    <rect x="-78" y="-28" width="156" height="56" fill="#fee2e2" stroke="#fca5a5" stroke-width="4" rx="8" />
    <text x="0" y="9" text-anchor="middle" fill="#ef4444" font-size="28" font-weight="bold" font-family="sans-serif">4</text>
  </g>
  <g transform="translate(317,1452)">
    <rect x="-78" y="-28" width="156" height="56" fill="#fee2e2" stroke="#fca5a5" stroke-width="4" rx="8" />
    <text x="0" y="9" text-anchor="middle" fill="#ef4444" font-size="28" font-weight="bold" font-family="sans-serif">3</text>
  </g>
  <g transform="translate(317,1512)">
    <rect x="-78" y="-28" width="156" height="56" fill="#fee2e2" stroke="#fca5a5" stroke-width="4" rx="8" />
    <text x="0" y="9" text-anchor="middle" fill="#ef4444" font-size="28" font-weight="bold" font-family="sans-serif">2</text>
  </g>
  <g transform="translate(317,1572)">
    <rect x="-78" y="-32" width="156" height="64" fill="#fee2e2" stroke="#fca5a5" stroke-width="4" rx="8" />
    <text x="0" y="9" text-anchor="middle" fill="#ef4444" font-size="28" font-weight="bold" font-family="sans-serif">1</text>
  </g>
  <g transform="translate(467,912)">
    <rect x="-78" y="-28" width="156" height="56" fill="#fee2e2" stroke="#fca5a5" stroke-width="4" rx="8" />
    <text x="0" y="9" text-anchor="middle" fill="#ef4444" font-size="28" font-weight="bold" font-family="sans-serif">24</text>
  </g>
  <g transform="translate(467,972)">
    <rect x="-78" y="-28" width="156" height="56" fill="#fee2e2" stroke="#fca5a5" stroke-width="4" rx="8" />
    <text x="0" y="9" text-anchor="middle" fill="#ef4444" font-size="28" font-weight="bold" font-family="sans-serif">23</text>
  </g>
  <g transform="translate(467,1032)">
    <rect x="-78" y="-28" width="156" height="56" fill="#fee2e2" stroke="#fca5a5" stroke-width="4" rx="8" />
    <text x="0" y="9" text-anchor="middle" fill="#ef4444" font-size="28" font-weight="bold" font-family="sans-serif">22</text>
  </g>
  <g transform="translate(467,1092)">
    <rect x="-78" y="-28" width="156" height="56" fill="#fee2e2" stroke="#fca5a5" stroke-width="4" rx="8" />
    <text x="0" y="9" text-anchor="middle" fill="#ef4444" font-size="28" font-weight="bold" font-family="sans-serif">21</text>
  </g>
  <g transform="translate(467,1152)">
    <rect x="-78" y="-28" width="156" height="56" fill="#fee2e2" stroke="#fca5a5" stroke-width="4" rx="8" />
    <text x="0" y="9" text-anchor="middle" fill="#ef4444" font-size="28" font-weight="bold" font-family="sans-serif">20</text>
  </g>
  <g transform="translate(467,1212)">
    <rect x="-78" y="-28" width="156" height="56" fill="#fee2e2" stroke="#fca5a5" stroke-width="4" rx="8" />
    <text x="0" y="9" text-anchor="middle" fill="#ef4444" font-size="28" font-weight="bold" font-family="sans-serif">19</text>
  </g>
  <g transform="translate(467,1272)">
    <rect x="-78" y="-28" width="156" height="56" fill="#fee2e2" stroke="#fca5a5" stroke-width="4" rx="8" />
    <text x="0" y="9" text-anchor="middle" fill="#ef4444" font-size="28" font-weight="bold" font-family="sans-serif">18</text>
  </g>
  <g transform="translate(467,1332)">
    <rect x="-78" y="-28" width="156" height="56" fill="#fee2e2" stroke="#fca5a5" stroke-width="4" rx="8" />
    <text x="0" y="9" text-anchor="middle" fill="#ef4444" font-size="28" font-weight="bold" font-family="sans-serif">17</text>
  </g>
  <g transform="translate(467,1392)">
    <rect x="-78" y="-28" width="156" height="56" fill="#fee2e2" stroke="#fca5a5" stroke-width="4" rx="8" />
    <text x="0" y="9" text-anchor="middle" fill="#ef4444" font-size="28" font-weight="bold" font-family="sans-serif">16</text>
  </g>
  <g transform="translate(467,1452)">
    <rect x="-78" y="-28" width="156" height="56" fill="#fee2e2" stroke="#fca5a5" stroke-width="4" rx="8" />
    <text x="0" y="9" text-anchor="middle" fill="#ef4444" font-size="28" font-weight="bold" font-family="sans-serif">15</text>
  </g>
  <g transform="translate(467,1512)">
    <rect x="-78" y="-28" width="156" height="56" fill="#fee2e2" stroke="#fca5a5" stroke-width="4" rx="8" />
    <text x="0" y="9" text-anchor="middle" fill="#ef4444" font-size="28" font-weight="bold" font-family="sans-serif">14</text>
  </g>
  <g transform="translate(467,1572)">
    <rect x="-78" y="-32" width="156" height="64" fill="#fee2e2" stroke="#fca5a5" stroke-width="4" rx="8" />
    <text x="0" y="9" text-anchor="middle" fill="#ef4444" font-size="28" font-weight="bold" font-family="sans-serif">13</text>
  </g>
  <g transform="translate(817,912)">
    <rect x="-78" y="-28" width="156" height="56" fill="#dcfce7" stroke="#86efac" stroke-width="4" rx="8" />
    <text x="0" y="9" text-anchor="middle" fill="#22c55e" font-size="28" font-weight="bold" font-family="sans-serif">12</text>
  </g>
  <g transform="translate(817,972)">
    <rect x="-78" y="-28" width="156" height="56" fill="#dcfce7" stroke="#86efac" stroke-width="4" rx="8" />
    <text x="0" y="9" text-anchor="middle" fill="#22c55e" font-size="28" font-weight="bold" font-family="sans-serif">11</text>
  </g>
  <g transform="translate(817,1032)">
    <rect x="-78" y="-28" width="156" height="56" fill="#fee2e2" stroke="#fca5a5" stroke-width="4" rx="8" />
    <text x="0" y="9" text-anchor="middle" fill="#ef4444" font-size="28" font-weight="bold" font-family="sans-serif">10</text>
  </g>
  <g transform="translate(817,1092)">
    <rect x="-78" y="-28" width="156" height="56" fill="#fee2e2" stroke="#fca5a5" stroke-width="4" rx="8" />
    <text x="0" y="9" text-anchor="middle" fill="#ef4444" font-size="28" font-weight="bold" font-family="sans-serif">9</text>
  </g>
  <g transform="translate(817,1152)">
    <rect x="-78" y="-28" width="156" height="56" fill="#fee2e2" stroke="#fca5a5" stroke-width="4" rx="8" />
    <text x="0" y="9" text-anchor="middle" fill="#ef4444" font-size="28" font-weight="bold" font-family="sans-serif">8</text>
  </g>
  <g transform="translate(817,1212)">
    <rect x="-78" y="-28" width="156" height="56" fill="#dcfce7" stroke="#86efac" stroke-width="4" rx="8" />
    <text x="0" y="9" text-anchor="middle" fill="#22c55e" font-size="28" font-weight="bold" font-family="sans-serif">7</text>
  </g>
  <g transform="translate(817,1272)">
    <rect x="-78" y="-28" width="156" height="56" fill="#dcfce7" stroke="#86efac" stroke-width="4" rx="8" />
    <text x="0" y="9" text-anchor="middle" fill="#22c55e" font-size="28" font-weight="bold" font-family="sans-serif">6</text>
  </g>
  <g transform="translate(817,1332)">
    <rect x="-78" y="-28" width="156" height="56" fill="#dcfce7" stroke="#86efac" stroke-width="4" rx="8" />
    <text x="0" y="9" text-anchor="middle" fill="#22c55e" font-size="28" font-weight="bold" font-family="sans-serif">5</text>
  </g>
  <g transform="translate(817,1392)">
    <rect x="-78" y="-28" width="156" height="56" fill="#fee2e2" stroke="#fca5a5" stroke-width="4" rx="8" />
    <text x="0" y="9" text-anchor="middle" fill="#ef4444" font-size="28" font-weight="bold" font-family="sans-serif">4</text>
  </g>
  <g transform="translate(817,1452)">
    <rect x="-78" y="-28" width="156" height="56" fill="#fee2e2" stroke="#fca5a5" stroke-width="4" rx="8" />
    <text x="0" y="9" text-anchor="middle" fill="#ef4444" font-size="28" font-weight="bold" font-family="sans-serif">3</text>
  </g>
  <g transform="translate(817,1512)">
    <rect x="-78" y="-28" width="156" height="56" fill="#fee2e2" stroke="#fca5a5" stroke-width="4" rx="8" />
    <text x="0" y="9" text-anchor="middle" fill="#ef4444" font-size="28" font-weight="bold" font-family="sans-serif">2</text>
  </g>
  <g transform="translate(817,1572)">
    <rect x="-78" y="-32" width="156" height="64" fill="#fee2e2" stroke="#fca5a5" stroke-width="4" rx="8" />
    <text x="0" y="9" text-anchor="middle" fill="#ef4444" font-size="28" font-weight="bold" font-family="sans-serif">1</text>
  </g>
  <g transform="translate(967,912)">
    <rect x="-78" y="-28" width="156" height="56" fill="#dcfce7" stroke="#86efac" stroke-width="4" rx="8" />
    <text x="0" y="9" text-anchor="middle" fill="#22c55e" font-size="28" font-weight="bold" font-family="sans-serif">24</text>
  </g>
  <g transform="translate(967,972)">
    <rect x="-78" y="-28" width="156" height="56" fill="#dcfce7" stroke="#86efac" stroke-width="4" rx="8" />
    <text x="0" y="9" text-anchor="middle" fill="#22c55e" font-size="28" font-weight="bold" font-family="sans-serif">23</text>
  </g>
  <g transform="translate(967,1032)">
    <rect x="-78" y="-28" width="156" height="56" fill="#dcfce7" stroke="#86efac" stroke-width="4" rx="8" />
    <text x="0" y="9" text-anchor="middle" fill="#22c55e" font-size="28" font-weight="bold" font-family="sans-serif">22</text>
  </g>
  <g transform="translate(967,1092)">
    <rect x="-78" y="-28" width="156" height="56" fill="#dcfce7" stroke="#86efac" stroke-width="4" rx="8" />
    <text x="0" y="9" text-anchor="middle" fill="#22c55e" font-size="28" font-weight="bold" font-family="sans-serif">21</text>
  </g>
  <g transform="translate(967,1152)">
    <rect x="-78" y="-28" width="156" height="56" fill="#dcfce7" stroke="#86efac" stroke-width="4" rx="8" />
    <text x="0" y="9" text-anchor="middle" fill="#22c55e" font-size="28" font-weight="bold" font-family="sans-serif">20</text>
  </g>
  <g transform="translate(967,1212)">
    <rect x="-78" y="-28" width="156" height="56" fill="#dcfce7" stroke="#86efac" stroke-width="4" rx="8" />
    <text x="0" y="9" text-anchor="middle" fill="#22c55e" font-size="28" font-weight="bold" font-family="sans-serif">19</text>
  </g>
  <g transform="translate(967,1272)">
    <rect x="-78" y="-28" width="156" height="56" fill="#dcfce7" stroke="#86efac" stroke-width="4" rx="8" />
    <text x="0" y="9" text-anchor="middle" fill="#22c55e" font-size="28" font-weight="bold" font-family="sans-serif">18</text>
  </g>
  <g transform="translate(967,1332)">
    <rect x="-78" y="-28" width="156" height="56" fill="#dcfce7" stroke="#86efac" stroke-width="4" rx="8" />
    <text x="0" y="9" text-anchor="middle" fill="#22c55e" font-size="28" font-weight="bold" font-family="sans-serif">17</text>
  </g>
  <g transform="translate(967,1392)">
    <rect x="-78" y="-28" width="156" height="56" fill="#dcfce7" stroke="#86efac" stroke-width="4" rx="8" />
    <text x="0" y="9" text-anchor="middle" fill="#22c55e" font-size="28" font-weight="bold" font-family="sans-serif">16</text>
  </g>
  <g transform="translate(967,1452)">
    <rect x="-78" y="-28" width="156" height="56" fill="#dcfce7" stroke="#86efac" stroke-width="4" rx="8" />
    <text x="0" y="9" text-anchor="middle" fill="#22c55e" font-size="28" font-weight="bold" font-family="sans-serif">15</text>
  </g>
  <g transform="translate(967,1512)">
    <rect x="-78" y="-28" width="156" height="56" fill="#dcfce7" stroke="#86efac" stroke-width="4" rx="8" />
    <text x="0" y="9" text-anchor="middle" fill="#22c55e" font-size="28" font-weight="bold" font-family="sans-serif">14</text>
  </g>
  <g transform="translate(967,1572)">
    <rect x="-78" y="-32" width="156" height="64" fill="#dcfce7" stroke="#86efac" stroke-width="4" rx="8" />
    <text x="0" y="9" text-anchor="middle" fill="#22c55e" font-size="28" font-weight="bold" font-family="sans-serif">13</text>
  </g>
  <g transform="translate(1317,912)">
    <rect x="-78" y="-28" width="156" height="56" fill="#dcfce7" stroke="#86efac" stroke-width="4" rx="8" />
    <text x="0" y="9" text-anchor="middle" fill="#22c55e" font-size="28" font-weight="bold" font-family="sans-serif">36</text>
  </g>
  <g transform="translate(1317,972)">
    <rect x="-78" y="-28" width="156" height="56" fill="#dcfce7" stroke="#86efac" stroke-width="4" rx="8" />
    <text x="0" y="9" text-anchor="middle" fill="#22c55e" font-size="28" font-weight="bold" font-family="sans-serif">35</text>
  </g>
  <g transform="translate(1317,1032)">
    <rect x="-78" y="-28" width="156" height="56" fill="#dcfce7" stroke="#86efac" stroke-width="4" rx="8" />
    <text x="0" y="9" text-anchor="middle" fill="#22c55e" font-size="28" font-weight="bold" font-family="sans-serif">34</text>
  </g>
  <g transform="translate(1317,1092)">
    <rect x="-78" y="-28" width="156" height="56" fill="#dcfce7" stroke="#86efac" stroke-width="4" rx="8" />
    <text x="0" y="9" text-anchor="middle" fill="#22c55e" font-size="28" font-weight="bold" font-family="sans-serif">33</text>
  </g>
  <g transform="translate(1317,1152)">
    <rect x="-78" y="-28" width="156" height="56" fill="#dcfce7" stroke="#86efac" stroke-width="4" rx="8" />
    <text x="0" y="9" text-anchor="middle" fill="#22c55e" font-size="28" font-weight="bold" font-family="sans-serif">32</text>
  </g>
  <g transform="translate(1317,1212)">
    <rect x="-78" y="-28" width="156" height="56" fill="#dcfce7" stroke="#86efac" stroke-width="4" rx="8" />
    <text x="0" y="9" text-anchor="middle" fill="#22c55e" font-size="28" font-weight="bold" font-family="sans-serif">31</text>
  </g>
  <g transform="translate(1317,1272)">
    <rect x="-78" y="-28" width="156" height="56" fill="#dcfce7" stroke="#86efac" stroke-width="4" rx="8" />
    <text x="0" y="9" text-anchor="middle" fill="#22c55e" font-size="28" font-weight="bold" font-family="sans-serif">30</text>
  </g>
  <g transform="translate(1317,1332)">
    <rect x="-78" y="-28" width="156" height="56" fill="#dcfce7" stroke="#86efac" stroke-width="4" rx="8" />
    <text x="0" y="9" text-anchor="middle" fill="#22c55e" font-size="28" font-weight="bold" font-family="sans-serif">29</text>
  </g>
  <g transform="translate(1317,1392)">
    <rect x="-78" y="-28" width="156" height="56" fill="#dcfce7" stroke="#86efac" stroke-width="4" rx="8" />
    <text x="0" y="9" text-anchor="middle" fill="#22c55e" font-size="28" font-weight="bold" font-family="sans-serif">28</text>
  </g>
  <g transform="translate(1317,1452)">
    <rect x="-78" y="-28" width="156" height="56" fill="#dcfce7" stroke="#86efac" stroke-width="4" rx="8" />
    <text x="0" y="9" text-anchor="middle" fill="#22c55e" font-size="28" font-weight="bold" font-family="sans-serif">27</text>
  </g>
  <g transform="translate(1317,1512)">
    <rect x="-78" y="-28" width="156" height="56" fill="#dcfce7" stroke="#86efac" stroke-width="4" rx="8" />
    <text x="0" y="9" text-anchor="middle" fill="#22c55e" font-size="28" font-weight="bold" font-family="sans-serif">26</text>
  </g>
  <g transform="translate(1317,1572)">
    <rect x="-78" y="-32" width="156" height="64" fill="#dcfce7" stroke="#86efac" stroke-width="4" rx="8" />
    <text x="0" y="9" text-anchor="middle" fill="#22c55e" font-size="28" font-weight="bold" font-family="sans-serif">25</text>
  </g>
  <g transform="translate(1467,912)">
    <rect x="-78" y="-28" width="156" height="56" fill="#dcfce7" stroke="#86efac" stroke-width="4" rx="8" />
    <text x="0" y="9" text-anchor="middle" fill="#22c55e" font-size="28" font-weight="bold" font-family="sans-serif">48</text>
  </g>
  <g transform="translate(1467,972)">
    <rect x="-78" y="-28" width="156" height="56" fill="#dcfce7" stroke="#86efac" stroke-width="4" rx="8" />
    <text x="0" y="9" text-anchor="middle" fill="#22c55e" font-size="28" font-weight="bold" font-family="sans-serif">47</text>
  </g>
  <g transform="translate(1467,1032)">
    <rect x="-78" y="-28" width="156" height="56" fill="#dcfce7" stroke="#86efac" stroke-width="4" rx="8" />
    <text x="0" y="9" text-anchor="middle" fill="#22c55e" font-size="28" font-weight="bold" font-family="sans-serif">46</text>
  </g>
  <g transform="translate(1467,1092)">
    <rect x="-78" y="-28" width="156" height="56" fill="#dcfce7" stroke="#86efac" stroke-width="4" rx="8" />
    <text x="0" y="9" text-anchor="middle" fill="#22c55e" font-size="28" font-weight="bold" font-family="sans-serif">45</text>
  </g>
  <g transform="translate(1467,1152)">
    <rect x="-78" y="-28" width="156" height="56" fill="#dcfce7" stroke="#86efac" stroke-width="4" rx="8" />
    <text x="0" y="9" text-anchor="middle" fill="#22c55e" font-size="28" font-weight="bold" font-family="sans-serif">44</text>
  </g>
  <g transform="translate(1467,1212)">
    <rect x="-78" y="-28" width="156" height="56" fill="#dcfce7" stroke="#86efac" stroke-width="4" rx="8" />
    <text x="0" y="9" text-anchor="middle" fill="#22c55e" font-size="28" font-weight="bold" font-family="sans-serif">43</text>
  </g>
  <g transform="translate(1467,1272)">
    <rect x="-78" y="-28" width="156" height="56" fill="#dcfce7" stroke="#86efac" stroke-width="4" rx="8" />
    <text x="0" y="9" text-anchor="middle" fill="#22c55e" font-size="28" font-weight="bold" font-family="sans-serif">42</text>
  </g>
  <g transform="translate(1467,1332)">
    <rect x="-78" y="-28" width="156" height="56" fill="#dcfce7" stroke="#86efac" stroke-width="4" rx="8" />
    <text x="0" y="9" text-anchor="middle" fill="#22c55e" font-size="28" font-weight="bold" font-family="sans-serif">41</text>
  </g>
  <g transform="translate(1467,1392)">
    <rect x="-78" y="-28" width="156" height="56" fill="#dcfce7" stroke="#86efac" stroke-width="4" rx="8" />
    <text x="0" y="9" text-anchor="middle" fill="#22c55e" font-size="28" font-weight="bold" font-family="sans-serif">40</text>
  </g>
  <g transform="translate(1467,1452)">
    <rect x="-78" y="-28" width="156" height="56" fill="#dcfce7" stroke="#86efac" stroke-width="4" rx="8" />
    <text x="0" y="9" text-anchor="middle" fill="#22c55e" font-size="28" font-weight="bold" font-family="sans-serif">39</text>
  </g>
  <g transform="translate(1467,1512)">
    <rect x="-78" y="-28" width="156" height="56" fill="#dcfce7" stroke="#86efac" stroke-width="4" rx="8" />
    <text x="0" y="9" text-anchor="middle" fill="#22c55e" font-size="28" font-weight="bold" font-family="sans-serif">38</text>
  </g>
  <g transform="translate(1467,1572)">
    <rect x="-78" y="-32" width="156" height="64" fill="#dcfce7" stroke="#86efac" stroke-width="4" rx="8" />
    <text x="0" y="9" text-anchor="middle" fill="#22c55e" font-size="28" font-weight="bold" font-family="sans-serif">37</text>
  </g>
  <g transform="translate(1807,917)">
    <rect x="-78" y="-28" width="156" height="56" fill="#dcfce7" stroke="#86efac" stroke-width="4" rx="8" />
    <text x="0" y="9" text-anchor="middle" fill="#22c55e" font-size="28" font-weight="bold" font-family="sans-serif">60</text>
  </g>
  <g transform="translate(1807,977)">
    <rect x="-78" y="-28" width="156" height="56" fill="#dcfce7" stroke="#86efac" stroke-width="4" rx="8" />
    <text x="0" y="9" text-anchor="middle" fill="#22c55e" font-size="28" font-weight="bold" font-family="sans-serif">59</text>
  </g>
  <g transform="translate(1807,1037)">
    <rect x="-78" y="-32" width="156" height="64" fill="#dcfce7" stroke="#86efac" stroke-width="4" rx="8" />
    <text x="0" y="9" text-anchor="middle" fill="#22c55e" font-size="28" font-weight="bold" font-family="sans-serif">58</text>
  </g>
  <g transform="translate(1807,1107)">
    <rect x="-78" y="-28" width="156" height="56" fill="#dcfce7" stroke="#86efac" stroke-width="4" rx="8" />
    <text x="0" y="9" text-anchor="middle" fill="#22c55e" font-size="28" font-weight="bold" font-family="sans-serif">57</text>
  </g>
  <g transform="translate(1807,1167)">
    <rect x="-78" y="-29.5" width="156" height="59" fill="#dcfce7" stroke="#86efac" stroke-width="4" rx="8" />
    <text x="0" y="9" text-anchor="middle" fill="#22c55e" font-size="28" font-weight="bold" font-family="sans-serif">56</text>
  </g>
  <g transform="translate(1807,1230)">
    <rect x="-78" y="-30.5" width="156" height="61" fill="#dcfce7" stroke="#86efac" stroke-width="4" rx="8" />
    <text x="0" y="9" text-anchor="middle" fill="#22c55e" font-size="28" font-weight="bold" font-family="sans-serif">55</text>
  </g>
  <g transform="translate(1807,1295)">
    <rect x="-78" y="-31.5" width="156" height="63" fill="#dcfce7" stroke="#86efac" stroke-width="4" rx="8" />
    <text x="0" y="9" text-anchor="middle" fill="#22c55e" font-size="28" font-weight="bold" font-family="sans-serif">54</text>
  </g>
  <g transform="translate(1807,1362)">
    <rect x="-78" y="-30.5" width="156" height="61" fill="#dcfce7" stroke="#86efac" stroke-width="4" rx="8" />
    <text x="0" y="9" text-anchor="middle" fill="#22c55e" font-size="28" font-weight="bold" font-family="sans-serif">53</text>
  </g>
  <g transform="translate(1807,1427)">
    <rect x="-78" y="-32" width="156" height="64" fill="#dcfce7" stroke="#86efac" stroke-width="4" rx="8" />
    <text x="0" y="9" text-anchor="middle" fill="#22c55e" font-size="28" font-weight="bold" font-family="sans-serif">52</text>
  </g>
  <g transform="translate(1807,1497)">
    <rect x="-78" y="-32" width="156" height="64" fill="#dcfce7" stroke="#86efac" stroke-width="4" rx="8" />
    <text x="0" y="9" text-anchor="middle" fill="#22c55e" font-size="28" font-weight="bold" font-family="sans-serif">51</text>
  </g>
  <g transform="translate(1807,1567)">
    <rect x="-78" y="-32" width="156" height="64" fill="#dcfce7" stroke="#86efac" stroke-width="4" rx="8" />
    <text x="0" y="9" text-anchor="middle" fill="#22c55e" font-size="28" font-weight="bold" font-family="sans-serif">50</text>
  </g>
  <g transform="translate(1957,912)">
    <rect x="-78" y="-28" width="156" height="56" fill="#dcfce7" stroke="#86efac" stroke-width="4" rx="8" />
    <text x="0" y="9" text-anchor="middle" fill="#22c55e" font-size="28" font-weight="bold" font-family="sans-serif">72</text>
  </g>
  <g transform="translate(1957,972)">
    <rect x="-78" y="-28" width="156" height="56" fill="#dcfce7" stroke="#86efac" stroke-width="4" rx="8" />
    <text x="0" y="9" text-anchor="middle" fill="#22c55e" font-size="28" font-weight="bold" font-family="sans-serif">71</text>
  </g>
  <g transform="translate(1957,1032)">
    <rect x="-78" y="-28" width="156" height="56" fill="#dcfce7" stroke="#86efac" stroke-width="4" rx="8" />
    <text x="0" y="9" text-anchor="middle" fill="#22c55e" font-size="28" font-weight="bold" font-family="sans-serif">70</text>
  </g>
  <g transform="translate(1957,1092)">
    <rect x="-78" y="-28" width="156" height="56" fill="#dcfce7" stroke="#86efac" stroke-width="4" rx="8" />
    <text x="0" y="9" text-anchor="middle" fill="#22c55e" font-size="28" font-weight="bold" font-family="sans-serif">69</text>
  </g>
  <g transform="translate(1957,1152)">
    <rect x="-78" y="-28" width="156" height="56" fill="#dcfce7" stroke="#86efac" stroke-width="4" rx="8" />
    <text x="0" y="9" text-anchor="middle" fill="#22c55e" font-size="28" font-weight="bold" font-family="sans-serif">68</text>
  </g>
  <g transform="translate(1957,1212)">
    <rect x="-78" y="-28" width="156" height="56" fill="#dcfce7" stroke="#86efac" stroke-width="4" rx="8" />
    <text x="0" y="9" text-anchor="middle" fill="#22c55e" font-size="28" font-weight="bold" font-family="sans-serif">67</text>
  </g>
  <g transform="translate(1957,1272)">
    <rect x="-78" y="-28" width="156" height="56" fill="#dcfce7" stroke="#86efac" stroke-width="4" rx="8" />
    <text x="0" y="9" text-anchor="middle" fill="#22c55e" font-size="28" font-weight="bold" font-family="sans-serif">66</text>
  </g>
  <g transform="translate(1957,1332)">
    <rect x="-78" y="-28" width="156" height="56" fill="#dcfce7" stroke="#86efac" stroke-width="4" rx="8" />
    <text x="0" y="9" text-anchor="middle" fill="#22c55e" font-size="28" font-weight="bold" font-family="sans-serif">65</text>
  </g>
  <g transform="translate(1957,1392)">
    <rect x="-78" y="-28" width="156" height="56" fill="#dcfce7" stroke="#86efac" stroke-width="4" rx="8" />
    <text x="0" y="9" text-anchor="middle" fill="#22c55e" font-size="28" font-weight="bold" font-family="sans-serif">64</text>
  </g>
  <g transform="translate(1957,1452)">
    <rect x="-78" y="-28" width="156" height="56" fill="#dcfce7" stroke="#86efac" stroke-width="4" rx="8" />
    <text x="0" y="9" text-anchor="middle" fill="#22c55e" font-size="28" font-weight="bold" font-family="sans-serif">63</text>
  </g>
  <g transform="translate(1957,1512)">
    <rect x="-78" y="-28" width="156" height="56" fill="#dcfce7" stroke="#86efac" stroke-width="4" rx="8" />
    <text x="0" y="9" text-anchor="middle" fill="#22c55e" font-size="28" font-weight="bold" font-family="sans-serif">62</text>
  </g>
  <g transform="translate(1957,1572)">
    <rect x="-78" y="-32" width="156" height="64" fill="#dcfce7" stroke="#86efac" stroke-width="4" rx="8" />
    <text x="0" y="9" text-anchor="middle" fill="#22c55e" font-size="28" font-weight="bold" font-family="sans-serif">61</text>
  </g>
</svg>